<?xml version="1.0" encoding="utf-8" standalone="no"?>
<!DOCTYPE svg PUBLIC "-//W3C//DTD SVG 1.1//EN"
  "http://www.w3.org/Graphics/SVG/1.1/DTD/svg11.dtd">
<svg height="324pt" version="1.1" viewBox="0 0 720 324" width="720pt" xmlns="http://www.w3.org/2000/svg" xmlns:xlink="http://www.w3.org/1999/xlink">
 <metadata>
  <rdf:RDF xmlns:cc="http://creativecommons.org/ns#" xmlns:dc="http://purl.org/dc/elements/1.1/" xmlns:rdf="http://www.w3.org/1999/02/22-rdf-syntax-ns#">
   <cc:Work>
    <dc:type rdf:resource="http://purl.org/dc/dcmitype/StillImage"/>
    <dc:date>2022-09-29T16:53:18.969929</dc:date>
    <dc:format>image/svg+xml</dc:format>
    <dc:creator>
     <cc:Agent>
      <dc:title>Matplotlib v3.4.3, https://matplotlib.org/</dc:title>
     </cc:Agent>
    </dc:creator>
   </cc:Work>
  </rdf:RDF>
 </metadata>
 <defs>
  <style type="text/css">*{stroke-linecap:butt;stroke-linejoin:round;}</style>
 </defs>
 <g id="figure_1">
  <g id="patch_1">
   <path d="M 0 324 
L 720 324 
L 720 0 
L 0 0 
z
" style="fill:#ffffff;"/>
  </g>
  <g id="axes_1">
   <g id="patch_2">
    <path d="M 90 288.36 
L 648 288.36 
L 648 38.88 
L 90 38.88 
z
" style="fill:#ffffff;"/>
   </g>
   <g id="matplotlib.axis_1">
    <g id="xtick_1">
     <g id="line2d_1">
      <defs>
       <path d="M 0 0 
L 0 -3.5 
" id="mde744d420c" style="stroke:#000000;stroke-width:0.8;"/>
      </defs>
      <g>
       <use style="stroke:#000000;stroke-width:0.8;" x="151.597403" xlink:href="#mde744d420c" y="288.36"/>
      </g>
     </g>
     <g id="text_1">
      <!-- 2 -->
      <g transform="translate(149.097403 298.80375)scale(0.1 -0.1)">
       <defs>
        <path d="M 2934 816 
L 2638 0 
L 138 0 
L 138 116 
Q 1241 1122 1691 1759 
Q 2141 2397 2141 2925 
Q 2141 3328 1894 3587 
Q 1647 3847 1303 3847 
Q 991 3847 742 3664 
Q 494 3481 375 3128 
L 259 3128 
Q 338 3706 661 4015 
Q 984 4325 1469 4325 
Q 1984 4325 2329 3994 
Q 2675 3663 2675 3213 
Q 2675 2891 2525 2569 
Q 2294 2063 1775 1497 
Q 997 647 803 472 
L 1909 472 
Q 2247 472 2383 497 
Q 2519 522 2628 598 
Q 2738 675 2819 816 
L 2934 816 
z
" id="TimesNewRomanPSMT-32" transform="scale(0.015625)"/>
       </defs>
       <use xlink:href="#TimesNewRomanPSMT-32"/>
      </g>
     </g>
    </g>
    <g id="xtick_2">
     <g id="line2d_2">
      <g>
       <use style="stroke:#000000;stroke-width:0.8;" x="224.064935" xlink:href="#mde744d420c" y="288.36"/>
      </g>
     </g>
     <g id="text_2">
      <!-- 4 -->
      <g transform="translate(221.564935 298.80375)scale(0.1 -0.1)">
       <defs>
        <path d="M 2978 1563 
L 2978 1119 
L 2409 1119 
L 2409 0 
L 1894 0 
L 1894 1119 
L 100 1119 
L 100 1519 
L 2066 4325 
L 2409 4325 
L 2409 1563 
L 2978 1563 
z
M 1894 1563 
L 1894 3666 
L 406 1563 
L 1894 1563 
z
" id="TimesNewRomanPSMT-34" transform="scale(0.015625)"/>
       </defs>
       <use xlink:href="#TimesNewRomanPSMT-34"/>
      </g>
     </g>
    </g>
    <g id="xtick_3">
     <g id="line2d_3">
      <g>
       <use style="stroke:#000000;stroke-width:0.8;" x="296.532468" xlink:href="#mde744d420c" y="288.36"/>
      </g>
     </g>
     <g id="text_3">
      <!-- 6 -->
      <g transform="translate(294.032468 298.80375)scale(0.1 -0.1)">
       <defs>
        <path d="M 2869 4325 
L 2869 4209 
Q 2456 4169 2195 4045 
Q 1934 3922 1679 3669 
Q 1425 3416 1258 3105 
Q 1091 2794 978 2366 
Q 1428 2675 1881 2675 
Q 2316 2675 2634 2325 
Q 2953 1975 2953 1425 
Q 2953 894 2631 456 
Q 2244 -75 1606 -75 
Q 1172 -75 869 213 
Q 275 772 275 1663 
Q 275 2231 503 2743 
Q 731 3256 1154 3653 
Q 1578 4050 1965 4187 
Q 2353 4325 2688 4325 
L 2869 4325 
z
M 925 2138 
Q 869 1716 869 1456 
Q 869 1156 980 804 
Q 1091 453 1309 247 
Q 1469 100 1697 100 
Q 1969 100 2183 356 
Q 2397 613 2397 1088 
Q 2397 1622 2184 2012 
Q 1972 2403 1581 2403 
Q 1463 2403 1327 2353 
Q 1191 2303 925 2138 
z
" id="TimesNewRomanPSMT-36" transform="scale(0.015625)"/>
       </defs>
       <use xlink:href="#TimesNewRomanPSMT-36"/>
      </g>
     </g>
    </g>
    <g id="xtick_4">
     <g id="line2d_4">
      <g>
       <use style="stroke:#000000;stroke-width:0.8;" x="369" xlink:href="#mde744d420c" y="288.36"/>
      </g>
     </g>
     <g id="text_4">
      <!-- 8 -->
      <g transform="translate(366.5 298.80375)scale(0.1 -0.1)">
       <defs>
        <path d="M 1228 2134 
Q 725 2547 579 2797 
Q 434 3047 434 3316 
Q 434 3728 753 4026 
Q 1072 4325 1600 4325 
Q 2113 4325 2425 4047 
Q 2738 3769 2738 3413 
Q 2738 3175 2569 2928 
Q 2400 2681 1866 2347 
Q 2416 1922 2594 1678 
Q 2831 1359 2831 1006 
Q 2831 559 2490 242 
Q 2150 -75 1597 -75 
Q 994 -75 656 303 
Q 388 606 388 966 
Q 388 1247 577 1523 
Q 766 1800 1228 2134 
z
M 1719 2469 
Q 2094 2806 2194 3001 
Q 2294 3197 2294 3444 
Q 2294 3772 2109 3958 
Q 1925 4144 1606 4144 
Q 1288 4144 1088 3959 
Q 888 3775 888 3528 
Q 888 3366 970 3203 
Q 1053 3041 1206 2894 
L 1719 2469 
z
M 1375 2016 
Q 1116 1797 991 1539 
Q 866 1281 866 981 
Q 866 578 1086 336 
Q 1306 94 1647 94 
Q 1984 94 2187 284 
Q 2391 475 2391 747 
Q 2391 972 2272 1150 
Q 2050 1481 1375 2016 
z
" id="TimesNewRomanPSMT-38" transform="scale(0.015625)"/>
       </defs>
       <use xlink:href="#TimesNewRomanPSMT-38"/>
      </g>
     </g>
    </g>
    <g id="xtick_5">
     <g id="line2d_5">
      <g>
       <use style="stroke:#000000;stroke-width:0.8;" x="441.467532" xlink:href="#mde744d420c" y="288.36"/>
      </g>
     </g>
     <g id="text_5">
      <!-- 10 -->
      <g transform="translate(436.467532 298.80375)scale(0.1 -0.1)">
       <defs>
        <path d="M 750 3822 
L 1781 4325 
L 1884 4325 
L 1884 747 
Q 1884 391 1914 303 
Q 1944 216 2037 169 
Q 2131 122 2419 116 
L 2419 0 
L 825 0 
L 825 116 
Q 1125 122 1212 167 
Q 1300 213 1334 289 
Q 1369 366 1369 747 
L 1369 3034 
Q 1369 3497 1338 3628 
Q 1316 3728 1258 3775 
Q 1200 3822 1119 3822 
Q 1003 3822 797 3725 
L 750 3822 
z
" id="TimesNewRomanPSMT-31" transform="scale(0.015625)"/>
        <path d="M 231 2094 
Q 231 2819 450 3342 
Q 669 3866 1031 4122 
Q 1313 4325 1613 4325 
Q 2100 4325 2488 3828 
Q 2972 3213 2972 2159 
Q 2972 1422 2759 906 
Q 2547 391 2217 158 
Q 1888 -75 1581 -75 
Q 975 -75 572 641 
Q 231 1244 231 2094 
z
M 844 2016 
Q 844 1141 1059 588 
Q 1238 122 1591 122 
Q 1759 122 1940 273 
Q 2122 425 2216 781 
Q 2359 1319 2359 2297 
Q 2359 3022 2209 3506 
Q 2097 3866 1919 4016 
Q 1791 4119 1609 4119 
Q 1397 4119 1231 3928 
Q 1006 3669 925 3112 
Q 844 2556 844 2016 
z
" id="TimesNewRomanPSMT-30" transform="scale(0.015625)"/>
       </defs>
       <use xlink:href="#TimesNewRomanPSMT-31"/>
       <use x="50" xlink:href="#TimesNewRomanPSMT-30"/>
      </g>
     </g>
    </g>
    <g id="xtick_6">
     <g id="line2d_6">
      <g>
       <use style="stroke:#000000;stroke-width:0.8;" x="513.935065" xlink:href="#mde744d420c" y="288.36"/>
      </g>
     </g>
     <g id="text_6">
      <!-- 12 -->
      <g transform="translate(508.935065 298.80375)scale(0.1 -0.1)">
       <use xlink:href="#TimesNewRomanPSMT-31"/>
       <use x="50" xlink:href="#TimesNewRomanPSMT-32"/>
      </g>
     </g>
    </g>
    <g id="xtick_7">
     <g id="line2d_7">
      <g>
       <use style="stroke:#000000;stroke-width:0.8;" x="586.402597" xlink:href="#mde744d420c" y="288.36"/>
      </g>
     </g>
     <g id="text_7">
      <!-- 14 -->
      <g transform="translate(581.402597 298.80375)scale(0.1 -0.1)">
       <use xlink:href="#TimesNewRomanPSMT-31"/>
       <use x="50" xlink:href="#TimesNewRomanPSMT-34"/>
      </g>
     </g>
    </g>
    <g id="text_8">
     <!-- Number of test -->
     <g transform="translate(326.223437 314.423438)scale(0.14 -0.14)">
      <defs>
       <path d="M 2281 4238 
L 3606 1413 
L 4203 3463 
Q 4250 3631 4250 3763 
Q 4250 3919 4151 4012 
Q 4053 4106 3813 4122 
L 3847 4238 
L 5191 4238 
L 5159 4122 
Q 4903 4106 4736 3978 
Q 4569 3850 4453 3463 
L 3419 -47 
L 3300 -47 
L 1600 3566 
L 778 750 
Q 738 603 738 488 
Q 738 319 848 217 
Q 959 116 1203 116 
L 1175 0 
L -206 0 
L -178 116 
Q 0 116 75 147 
Q 206 197 331 339 
Q 456 481 534 750 
L 1431 3828 
Q 1266 4013 1153 4066 
Q 1041 4119 816 4122 
L 850 4238 
L 2281 4238 
z
" id="TimesNewRomanPS-BoldItalicMT-4e" transform="scale(0.015625)"/>
       <path d="M 1700 2897 
L 1094 772 
Q 1050 625 1050 569 
Q 1050 541 1072 525 
Q 1097 500 1131 500 
Q 1275 500 1516 756 
Q 1859 1128 2238 1825 
L 2522 2781 
L 3313 2809 
L 2713 747 
Q 2638 484 2638 447 
Q 2638 422 2661 395 
Q 2684 369 2709 369 
Q 2753 369 2794 406 
Q 2906 497 3091 772 
L 3197 697 
Q 2763 -88 2241 -88 
Q 2047 -88 1936 10 
Q 1825 109 1825 269 
Q 1825 438 1903 697 
L 2056 1225 
Q 1650 634 1466 428 
Q 1184 119 992 15 
Q 800 -88 625 -88 
Q 459 -88 339 34 
Q 219 156 219 344 
Q 219 503 297 772 
L 650 2022 
Q 738 2328 738 2434 
Q 738 2481 713 2517 
Q 688 2553 630 2573 
Q 572 2594 416 2594 
L 447 2713 
L 1513 2897 
L 1700 2897 
z
" id="TimesNewRomanPS-BoldItalicMT-75" transform="scale(0.015625)"/>
       <path d="M 1700 2897 
L 1300 1553 
Q 1703 2172 1888 2388 
Q 2159 2703 2336 2800 
Q 2513 2897 2691 2897 
Q 2894 2897 2984 2775 
Q 3075 2653 3075 2506 
Q 3075 2353 2991 2056 
L 2850 1553 
Q 3256 2178 3434 2384 
Q 3709 2703 3913 2816 
Q 4053 2897 4213 2897 
Q 4378 2897 4489 2786 
Q 4600 2675 4600 2497 
Q 4600 2297 4506 1978 
L 4159 813 
Q 4081 553 4081 478 
Q 4081 453 4101 431 
Q 4122 409 4147 409 
Q 4181 409 4206 431 
Q 4319 522 4444 697 
Q 4472 734 4528 813 
L 4634 744 
Q 4419 341 4161 153 
Q 3903 -34 3684 -34 
Q 3494 -34 3378 70 
Q 3263 175 3263 316 
Q 3263 450 3341 722 
L 3694 1941 
Q 3766 2194 3766 2256 
Q 3766 2278 3744 2298 
Q 3722 2319 3700 2319 
Q 3659 2319 3619 2300 
Q 3559 2269 3436 2137 
Q 3313 2006 3081 1667 
Q 2850 1328 2761 1137 
Q 2672 947 2584 644 
L 2394 0 
L 1603 0 
L 2188 2041 
Q 2234 2206 2234 2269 
Q 2234 2291 2214 2309 
Q 2194 2328 2172 2328 
Q 2056 2328 1806 2025 
Q 1425 1556 1113 897 
L 859 0 
L 63 0 
L 650 2009 
Q 738 2306 738 2431 
Q 738 2481 713 2517 
Q 688 2553 631 2573 
Q 575 2594 416 2594 
L 447 2713 
L 1513 2897 
L 1700 2897 
z
" id="TimesNewRomanPS-BoldItalicMT-6d" transform="scale(0.015625)"/>
       <path d="M 2022 4334 
L 1481 2450 
Q 1728 2719 1893 2808 
Q 2059 2897 2253 2897 
Q 2628 2897 2814 2626 
Q 3000 2356 3000 2003 
Q 3000 1159 2388 497 
Q 1844 -88 1150 -88 
Q 634 -88 59 216 
L 1016 3531 
Q 1084 3766 1084 3853 
Q 1084 3928 1022 3972 
Q 934 4034 756 4025 
L 791 4150 
L 1834 4334 
L 2022 4334 
z
M 822 184 
Q 969 91 1088 91 
Q 1253 91 1366 156 
Q 1544 263 1739 541 
Q 1934 819 2065 1212 
Q 2197 1606 2197 1997 
Q 2197 2219 2097 2334 
Q 1997 2450 1866 2450 
Q 1647 2450 1484 2238 
Q 1375 2100 1247 1653 
L 822 184 
z
" id="TimesNewRomanPS-BoldItalicMT-62" transform="scale(0.015625)"/>
       <path d="M 1000 1172 
Q 972 969 972 838 
Q 972 603 1108 462 
Q 1244 322 1472 322 
Q 1691 322 1911 428 
Q 2131 534 2422 800 
L 2516 716 
Q 2156 281 1815 96 
Q 1475 -88 1063 -88 
Q 541 -88 341 162 
Q 141 413 141 741 
Q 141 1253 439 1765 
Q 738 2278 1252 2587 
Q 1766 2897 2284 2897 
Q 2547 2897 2681 2772 
Q 2816 2647 2816 2456 
Q 2816 2228 2684 2013 
Q 2503 1719 2228 1539 
Q 1953 1359 1613 1266 
Q 1384 1203 1000 1172 
z
M 1028 1334 
Q 1303 1375 1454 1445 
Q 1606 1516 1751 1670 
Q 1897 1825 2003 2061 
Q 2109 2297 2109 2503 
Q 2109 2591 2061 2641 
Q 2013 2691 1938 2691 
Q 1788 2691 1600 2481 
Q 1256 2100 1028 1334 
z
" id="TimesNewRomanPS-BoldItalicMT-65" transform="scale(0.015625)"/>
       <path d="M 1516 2897 
L 1044 1141 
Q 1625 2425 1919 2722 
Q 2091 2897 2281 2897 
Q 2413 2897 2494 2801 
Q 2575 2706 2575 2531 
Q 2575 2228 2428 2022 
Q 2334 1891 2219 1891 
Q 2094 1891 2031 2006 
Q 1969 2122 1944 2142 
Q 1919 2163 1891 2163 
Q 1859 2163 1825 2144 
Q 1756 2106 1645 1961 
Q 1534 1816 1371 1475 
Q 1209 1134 1118 898 
Q 1028 663 866 0 
L 109 0 
L 625 2072 
Q 681 2303 681 2378 
Q 681 2463 651 2509 
Q 622 2556 570 2578 
Q 519 2600 356 2600 
L 384 2691 
L 1328 2897 
L 1516 2897 
z
" id="TimesNewRomanPS-BoldItalicMT-72" transform="scale(0.015625)"/>
       <path id="TimesNewRomanPS-BoldItalicMT-20" transform="scale(0.015625)"/>
       <path d="M 2103 2897 
Q 2350 2897 2567 2783 
Q 2784 2669 2895 2466 
Q 3006 2263 3006 2016 
Q 3006 1509 2723 1003 
Q 2441 497 1978 204 
Q 1516 -88 1047 -88 
Q 622 -88 389 165 
Q 156 419 156 784 
Q 156 1219 329 1598 
Q 503 1978 770 2261 
Q 1038 2544 1384 2720 
Q 1731 2897 2103 2897 
z
M 1975 2731 
Q 1809 2731 1700 2634 
Q 1481 2438 1206 1714 
Q 931 991 931 409 
Q 931 266 1018 172 
Q 1106 78 1225 78 
Q 1347 78 1441 153 
Q 1578 266 1778 658 
Q 1978 1050 2106 1523 
Q 2234 1997 2234 2391 
Q 2234 2553 2156 2642 
Q 2078 2731 1975 2731 
z
" id="TimesNewRomanPS-BoldItalicMT-6f" transform="scale(0.015625)"/>
       <path d="M 1675 2444 
L 1309 1000 
Q 1053 -22 809 -481 
Q 566 -941 239 -1161 
Q -88 -1381 -509 -1381 
Q -775 -1381 -900 -1279 
Q -1025 -1178 -1025 -1041 
Q -1025 -913 -922 -819 
Q -819 -725 -650 -725 
Q -509 -725 -434 -797 
Q -359 -869 -359 -978 
Q -359 -1078 -406 -1126 
Q -453 -1175 -453 -1191 
L -438 -1213 
Q -419 -1228 -394 -1228 
Q -300 -1228 -234 -1169 
Q -69 -1022 13 -813 
Q 69 -669 228 -53 
L 866 2444 
L 431 2444 
L 534 2809 
Q 769 2806 875 2868 
Q 981 2931 1100 3150 
Q 1444 3784 1825 4059 
Q 2206 4334 2675 4334 
Q 2975 4334 3111 4218 
Q 3247 4103 3247 3919 
Q 3247 3756 3156 3661 
Q 3066 3566 2931 3566 
Q 2806 3566 2725 3644 
Q 2644 3722 2644 3831 
Q 2644 3909 2695 3996 
Q 2747 4084 2747 4116 
Q 2747 4150 2723 4172 
Q 2700 4194 2663 4194 
Q 2478 4194 2284 3966 
Q 1966 3600 1772 2809 
L 2225 2809 
L 2116 2444 
L 1675 2444 
z
" id="TimesNewRomanPS-BoldItalicMT-66" transform="scale(0.015625)"/>
       <path d="M 1834 3659 
L 1584 2809 
L 1994 2809 
L 1884 2450 
L 1481 2450 
L 959 638 
Q 909 469 909 381 
Q 909 341 937 311 
Q 966 281 1000 281 
Q 1053 281 1109 325 
Q 1253 434 1444 706 
L 1553 638 
Q 1338 263 1078 87 
Q 819 -88 569 -88 
Q 356 -88 239 20 
Q 122 128 122 294 
Q 122 475 203 759 
L 697 2450 
L 272 2450 
L 334 2681 
Q 734 2828 1009 3025 
Q 1284 3222 1672 3659 
L 1834 3659 
z
" id="TimesNewRomanPS-BoldItalicMT-74" transform="scale(0.015625)"/>
       <path d="M 2381 2897 
L 2244 1931 
L 2128 1931 
Q 2103 2306 1898 2522 
Q 1694 2738 1459 2738 
Q 1316 2738 1222 2653 
Q 1128 2569 1128 2450 
Q 1128 2350 1168 2262 
Q 1209 2175 1350 2025 
Q 1844 1494 1950 1294 
Q 2056 1094 2056 866 
Q 2056 619 1931 398 
Q 1806 178 1557 45 
Q 1309 -88 1041 -88 
Q 859 -88 594 -16 
Q 419 34 331 34 
Q 253 34 209 10 
Q 166 -13 113 -88 
L -3 -88 
L 150 953 
L 250 953 
Q 359 575 454 414 
Q 550 253 709 158 
Q 869 63 1016 63 
Q 1188 63 1300 170 
Q 1413 278 1413 428 
Q 1413 575 1339 712 
Q 1266 850 1000 1141 
Q 634 1538 519 1753 
Q 438 1909 438 2109 
Q 438 2447 683 2672 
Q 928 2897 1372 2897 
Q 1566 2897 1847 2828 
Q 1988 2794 2072 2794 
Q 2194 2794 2269 2897 
L 2381 2897 
z
" id="TimesNewRomanPS-BoldItalicMT-73" transform="scale(0.015625)"/>
      </defs>
      <use xlink:href="#TimesNewRomanPS-BoldItalicMT-4e"/>
      <use x="72.216797" xlink:href="#TimesNewRomanPS-BoldItalicMT-75"/>
      <use x="127.832031" xlink:href="#TimesNewRomanPS-BoldItalicMT-6d"/>
      <use x="205.615234" xlink:href="#TimesNewRomanPS-BoldItalicMT-62"/>
      <use x="255.615234" xlink:href="#TimesNewRomanPS-BoldItalicMT-65"/>
      <use x="300" xlink:href="#TimesNewRomanPS-BoldItalicMT-72"/>
      <use x="338.916016" xlink:href="#TimesNewRomanPS-BoldItalicMT-20"/>
      <use x="363.916016" xlink:href="#TimesNewRomanPS-BoldItalicMT-6f"/>
      <use x="413.916016" xlink:href="#TimesNewRomanPS-BoldItalicMT-66"/>
      <use x="447.216797" xlink:href="#TimesNewRomanPS-BoldItalicMT-20"/>
      <use x="472.216797" xlink:href="#TimesNewRomanPS-BoldItalicMT-74"/>
      <use x="500" xlink:href="#TimesNewRomanPS-BoldItalicMT-65"/>
      <use x="544.384766" xlink:href="#TimesNewRomanPS-BoldItalicMT-73"/>
      <use x="583.300781" xlink:href="#TimesNewRomanPS-BoldItalicMT-74"/>
     </g>
    </g>
   </g>
   <g id="matplotlib.axis_2">
    <g id="ytick_1">
     <g id="line2d_8">
      <defs>
       <path d="M 0 0 
L 3.5 0 
" id="m9e0f737377" style="stroke:#000000;stroke-width:0.8;"/>
      </defs>
      <g>
       <use style="stroke:#000000;stroke-width:0.8;" x="90" xlink:href="#m9e0f737377" y="277.02"/>
      </g>
     </g>
     <g id="text_9">
      <!-- 0.0 -->
      <g transform="translate(74 280.491875)scale(0.1 -0.1)">
       <defs>
        <path d="M 800 606 
Q 947 606 1047 504 
Q 1147 403 1147 259 
Q 1147 116 1045 14 
Q 944 -88 800 -88 
Q 656 -88 554 14 
Q 453 116 453 259 
Q 453 406 554 506 
Q 656 606 800 606 
z
" id="TimesNewRomanPSMT-2e" transform="scale(0.015625)"/>
       </defs>
       <use xlink:href="#TimesNewRomanPSMT-30"/>
       <use x="50" xlink:href="#TimesNewRomanPSMT-2e"/>
       <use x="75" xlink:href="#TimesNewRomanPSMT-30"/>
      </g>
     </g>
    </g>
    <g id="ytick_2">
     <g id="line2d_9">
      <g>
       <use style="stroke:#000000;stroke-width:0.8;" x="90" xlink:href="#m9e0f737377" y="230.02983"/>
      </g>
     </g>
     <g id="text_10">
      <!-- 0.2 -->
      <g transform="translate(74 233.501705)scale(0.1 -0.1)">
       <use xlink:href="#TimesNewRomanPSMT-30"/>
       <use x="50" xlink:href="#TimesNewRomanPSMT-2e"/>
       <use x="75" xlink:href="#TimesNewRomanPSMT-32"/>
      </g>
     </g>
    </g>
    <g id="ytick_3">
     <g id="line2d_10">
      <g>
       <use style="stroke:#000000;stroke-width:0.8;" x="90" xlink:href="#m9e0f737377" y="183.039659"/>
      </g>
     </g>
     <g id="text_11">
      <!-- 0.4 -->
      <g transform="translate(74 186.511534)scale(0.1 -0.1)">
       <use xlink:href="#TimesNewRomanPSMT-30"/>
       <use x="50" xlink:href="#TimesNewRomanPSMT-2e"/>
       <use x="75" xlink:href="#TimesNewRomanPSMT-34"/>
      </g>
     </g>
    </g>
    <g id="ytick_4">
     <g id="line2d_11">
      <g>
       <use style="stroke:#000000;stroke-width:0.8;" x="90" xlink:href="#m9e0f737377" y="136.049489"/>
      </g>
     </g>
     <g id="text_12">
      <!-- 0.6 -->
      <g transform="translate(74 139.521364)scale(0.1 -0.1)">
       <use xlink:href="#TimesNewRomanPSMT-30"/>
       <use x="50" xlink:href="#TimesNewRomanPSMT-2e"/>
       <use x="75" xlink:href="#TimesNewRomanPSMT-36"/>
      </g>
     </g>
    </g>
    <g id="ytick_5">
     <g id="line2d_12">
      <g>
       <use style="stroke:#000000;stroke-width:0.8;" x="90" xlink:href="#m9e0f737377" y="89.059319"/>
      </g>
     </g>
     <g id="text_13">
      <!-- 0.8 -->
      <g transform="translate(74 92.531194)scale(0.1 -0.1)">
       <use xlink:href="#TimesNewRomanPSMT-30"/>
       <use x="50" xlink:href="#TimesNewRomanPSMT-2e"/>
       <use x="75" xlink:href="#TimesNewRomanPSMT-38"/>
      </g>
     </g>
    </g>
    <g id="ytick_6">
     <g id="line2d_13">
      <g>
       <use style="stroke:#000000;stroke-width:0.8;" x="90" xlink:href="#m9e0f737377" y="42.069149"/>
      </g>
     </g>
     <g id="text_14">
      <!-- 1.0 -->
      <g transform="translate(74 45.541024)scale(0.1 -0.1)">
       <use xlink:href="#TimesNewRomanPSMT-31"/>
       <use x="50" xlink:href="#TimesNewRomanPSMT-2e"/>
       <use x="75" xlink:href="#TimesNewRomanPSMT-30"/>
      </g>
     </g>
    </g>
    <g id="text_15">
     <!-- Evaluation result -->
     <g transform="translate(67.005313 213.604375)rotate(-90)scale(0.14 -0.14)">
      <defs>
       <path d="M 2419 4003 
L 1947 2359 
L 2091 2359 
Q 2659 2359 2920 2509 
Q 3181 2659 3363 3041 
L 3478 3041 
L 3003 1391 
L 2894 1391 
Q 2922 1556 2922 1659 
Q 2922 1831 2820 1940 
Q 2719 2050 2556 2097 
Q 2450 2128 2116 2128 
L 1872 2128 
L 1466 706 
Q 1413 519 1413 428 
Q 1413 356 1481 313 
Q 1581 250 1859 250 
Q 2394 250 2866 476 
Q 3338 703 3713 1163 
L 3841 1163 
L 3400 0 
L -225 0 
L -188 116 
Q 131 116 278 236 
Q 425 356 544 766 
L 1341 3494 
Q 1406 3722 1406 3853 
Q 1406 3972 1322 4036 
Q 1238 4100 938 4122 
L 972 4238 
L 4350 4238 
L 4078 3178 
L 3966 3178 
Q 3953 3491 3869 3619 
Q 3738 3819 3520 3911 
Q 3303 4003 2816 4003 
L 2419 4003 
z
" id="TimesNewRomanPS-BoldItalicMT-45" transform="scale(0.015625)"/>
       <path d="M 881 -88 
L 769 -88 
Q 778 169 778 300 
Q 778 656 723 1329 
Q 669 2003 600 2228 
Q 547 2394 459 2469 
Q 400 2519 306 2519 
Q 253 2519 178 2506 
L 178 2619 
L 1219 2897 
Q 1531 2044 1522 713 
Q 1981 1150 2154 1422 
Q 2328 1694 2328 1875 
Q 2328 2019 2220 2167 
Q 2113 2316 2086 2378 
Q 2059 2441 2059 2516 
Q 2059 2678 2165 2787 
Q 2272 2897 2434 2897 
Q 2606 2897 2700 2788 
Q 2831 2634 2831 2425 
Q 2831 2209 2754 2001 
Q 2678 1794 2492 1511 
Q 2306 1228 2078 997 
Q 1659 572 881 -88 
z
" id="TimesNewRomanPS-BoldItalicMT-76" transform="scale(0.015625)"/>
       <path d="M 3066 2853 
L 2459 775 
L 2397 522 
Q 2388 475 2388 453 
Q 2388 416 2414 387 
Q 2441 359 2469 359 
Q 2534 359 2650 459 
Q 2697 500 2875 747 
L 2984 691 
Q 2763 284 2511 98 
Q 2259 -88 1969 -88 
Q 1791 -88 1697 4 
Q 1603 97 1603 238 
Q 1603 359 1703 691 
L 1778 944 
Q 1416 322 1081 63 
Q 888 -88 669 -88 
Q 381 -88 253 148 
Q 125 384 125 681 
Q 125 1122 394 1692 
Q 663 2263 1100 2609 
Q 1459 2897 1775 2897 
Q 1950 2897 2056 2795 
Q 2163 2694 2213 2425 
L 2325 2809 
L 3066 2853 
z
M 2066 2259 
Q 2066 2513 1988 2625 
Q 1931 2703 1834 2703 
Q 1738 2703 1634 2609 
Q 1425 2416 1183 1823 
Q 941 1231 941 800 
Q 941 634 995 561 
Q 1050 488 1116 488 
Q 1256 488 1400 650 
Q 1606 881 1772 1216 
Q 2066 1803 2066 2259 
z
" id="TimesNewRomanPS-BoldItalicMT-61" transform="scale(0.015625)"/>
       <path d="M 2025 4334 
L 991 816 
Q 900 503 900 425 
Q 900 384 926 356 
Q 953 328 984 328 
Q 1041 328 1091 372 
Q 1241 494 1425 784 
L 1547 728 
Q 1250 253 963 50 
Q 766 -88 544 -88 
Q 338 -88 216 23 
Q 94 134 94 291 
Q 94 406 169 663 
L 1013 3544 
Q 1081 3781 1081 3859 
Q 1081 3934 1016 3978 
Q 928 4041 750 4031 
L 784 4150 
L 1838 4334 
L 2025 4334 
z
" id="TimesNewRomanPS-BoldItalicMT-6c" transform="scale(0.015625)"/>
       <path d="M 1438 4334 
Q 1631 4334 1764 4200 
Q 1897 4066 1897 3875 
Q 1897 3684 1762 3550 
Q 1628 3416 1438 3416 
Q 1250 3416 1115 3550 
Q 981 3684 981 3875 
Q 981 4066 1114 4200 
Q 1247 4334 1438 4334 
z
M 1631 2897 
L 991 675 
Q 938 484 938 425 
Q 938 391 966 361 
Q 994 331 1025 331 
Q 1078 331 1131 378 
Q 1272 494 1469 797 
L 1575 734 
Q 1103 -88 572 -88 
Q 369 -88 248 26 
Q 128 141 128 316 
Q 128 431 181 609 
L 616 2103 
Q 678 2319 678 2428 
Q 678 2497 618 2550 
Q 559 2603 456 2603 
Q 409 2603 344 2600 
L 384 2725 
L 1444 2897 
L 1631 2897 
z
" id="TimesNewRomanPS-BoldItalicMT-69" transform="scale(0.015625)"/>
       <path d="M 1709 2897 
L 1322 1556 
Q 1713 2144 1906 2359 
Q 2191 2672 2397 2784 
Q 2603 2897 2784 2897 
Q 2947 2897 3062 2776 
Q 3178 2656 3178 2463 
Q 3178 2288 3103 2038 
L 2703 703 
Q 2653 528 2653 475 
Q 2653 444 2676 419 
Q 2700 394 2725 394 
Q 2756 394 2791 419 
Q 2900 509 3013 675 
Q 3041 719 3103 806 
L 3222 734 
Q 2763 -38 2256 -38 
Q 2063 -38 1953 62 
Q 1844 163 1844 313 
Q 1844 444 1919 703 
L 2309 2038 
Q 2350 2169 2350 2231 
Q 2350 2266 2322 2292 
Q 2294 2319 2256 2319 
Q 2138 2319 1969 2156 
Q 1538 1744 1134 928 
L 878 0 
L 81 0 
L 666 2006 
Q 750 2303 750 2428 
Q 750 2481 725 2517 
Q 700 2553 644 2573 
Q 588 2594 431 2594 
L 466 2713 
L 1519 2897 
L 1709 2897 
z
" id="TimesNewRomanPS-BoldItalicMT-6e" transform="scale(0.015625)"/>
      </defs>
      <use xlink:href="#TimesNewRomanPS-BoldItalicMT-45"/>
      <use x="66.699219" xlink:href="#TimesNewRomanPS-BoldItalicMT-76"/>
      <use x="111.083984" xlink:href="#TimesNewRomanPS-BoldItalicMT-61"/>
      <use x="161.083984" xlink:href="#TimesNewRomanPS-BoldItalicMT-6c"/>
      <use x="188.867188" xlink:href="#TimesNewRomanPS-BoldItalicMT-75"/>
      <use x="244.482422" xlink:href="#TimesNewRomanPS-BoldItalicMT-61"/>
      <use x="294.482422" xlink:href="#TimesNewRomanPS-BoldItalicMT-74"/>
      <use x="322.265625" xlink:href="#TimesNewRomanPS-BoldItalicMT-69"/>
      <use x="350.048828" xlink:href="#TimesNewRomanPS-BoldItalicMT-6f"/>
      <use x="400.048828" xlink:href="#TimesNewRomanPS-BoldItalicMT-6e"/>
      <use x="455.664062" xlink:href="#TimesNewRomanPS-BoldItalicMT-20"/>
      <use x="480.664062" xlink:href="#TimesNewRomanPS-BoldItalicMT-72"/>
      <use x="519.580078" xlink:href="#TimesNewRomanPS-BoldItalicMT-65"/>
      <use x="563.964844" xlink:href="#TimesNewRomanPS-BoldItalicMT-73"/>
      <use x="602.880859" xlink:href="#TimesNewRomanPS-BoldItalicMT-75"/>
      <use x="658.496094" xlink:href="#TimesNewRomanPS-BoldItalicMT-6c"/>
      <use x="686.279297" xlink:href="#TimesNewRomanPS-BoldItalicMT-74"/>
     </g>
    </g>
   </g>
   <g id="line2d_14">
    <path clip-path="url(#pe52b6c389c)" d="M 115.363636 264.216553 
L 151.597403 265.001718 
L 187.831169 238.35038 
L 224.064935 257.64512 
L 260.298701 197.238546 
L 296.532468 190.683623 
L 332.766234 189.841781 
L 369 150.034776 
L 405.233766 175.263194 
L 441.467532 169.285312 
L 477.701299 104.636653 
L 513.935065 103.234956 
L 550.168831 98.955519 
L 586.402597 67.527832 
L 622.636364 69.468284 
" style="fill:none;stroke:#0000ff;stroke-dasharray:4.81,2.08;stroke-dashoffset:0;stroke-width:1.3;"/>
    <defs>
     <path d="M -2.25 2.25 
L 2.25 2.25 
L 2.25 -2.25 
L -2.25 -2.25 
z
" id="m09495d4c18" style="stroke:#0000ff;stroke-linejoin:miter;"/>
    </defs>
    <g clip-path="url(#pe52b6c389c)">
     <use style="fill:#0000ff;stroke:#0000ff;stroke-linejoin:miter;" x="115.363636" xlink:href="#m09495d4c18" y="264.216553"/>
     <use style="fill:#0000ff;stroke:#0000ff;stroke-linejoin:miter;" x="151.597403" xlink:href="#m09495d4c18" y="265.001718"/>
     <use style="fill:#0000ff;stroke:#0000ff;stroke-linejoin:miter;" x="187.831169" xlink:href="#m09495d4c18" y="238.35038"/>
     <use style="fill:#0000ff;stroke:#0000ff;stroke-linejoin:miter;" x="224.064935" xlink:href="#m09495d4c18" y="257.64512"/>
     <use style="fill:#0000ff;stroke:#0000ff;stroke-linejoin:miter;" x="260.298701" xlink:href="#m09495d4c18" y="197.238546"/>
     <use style="fill:#0000ff;stroke:#0000ff;stroke-linejoin:miter;" x="296.532468" xlink:href="#m09495d4c18" y="190.683623"/>
     <use style="fill:#0000ff;stroke:#0000ff;stroke-linejoin:miter;" x="332.766234" xlink:href="#m09495d4c18" y="189.841781"/>
     <use style="fill:#0000ff;stroke:#0000ff;stroke-linejoin:miter;" x="369" xlink:href="#m09495d4c18" y="150.034776"/>
     <use style="fill:#0000ff;stroke:#0000ff;stroke-linejoin:miter;" x="405.233766" xlink:href="#m09495d4c18" y="175.263194"/>
     <use style="fill:#0000ff;stroke:#0000ff;stroke-linejoin:miter;" x="441.467532" xlink:href="#m09495d4c18" y="169.285312"/>
     <use style="fill:#0000ff;stroke:#0000ff;stroke-linejoin:miter;" x="477.701299" xlink:href="#m09495d4c18" y="104.636653"/>
     <use style="fill:#0000ff;stroke:#0000ff;stroke-linejoin:miter;" x="513.935065" xlink:href="#m09495d4c18" y="103.234956"/>
     <use style="fill:#0000ff;stroke:#0000ff;stroke-linejoin:miter;" x="550.168831" xlink:href="#m09495d4c18" y="98.955519"/>
     <use style="fill:#0000ff;stroke:#0000ff;stroke-linejoin:miter;" x="586.402597" xlink:href="#m09495d4c18" y="67.527832"/>
     <use style="fill:#0000ff;stroke:#0000ff;stroke-linejoin:miter;" x="622.636364" xlink:href="#m09495d4c18" y="69.468284"/>
    </g>
   </g>
   <g id="line2d_15">
    <path clip-path="url(#pe52b6c389c)" d="M 115.363636 267.666331 
L 151.597403 268.782107 
L 187.831169 219.627206 
L 224.064935 248.018042 
L 260.298701 200.096542 
L 296.532468 183.641964 
L 332.766234 188.584571 
L 369 131.770281 
L 405.233766 125.376175 
L 441.467532 114.64308 
L 477.701299 121.714157 
L 513.935065 125.489609 
L 550.168831 119.90496 
L 586.402597 68.160668 
L 622.636364 78.991521 
" style="fill:none;stroke:#1f77b4;stroke-dasharray:4.81,2.08;stroke-dashoffset:0;stroke-width:1.3;"/>
    <defs>
     <path d="M 2.75 0 
L -2.75 -2.75 
L -2.75 2.75 
z
" id="m3fd9f33f14" style="stroke:#1f77b4;stroke-linejoin:miter;"/>
    </defs>
    <g clip-path="url(#pe52b6c389c)">
     <use style="fill:#1f77b4;stroke:#1f77b4;stroke-linejoin:miter;" x="115.363636" xlink:href="#m3fd9f33f14" y="267.666331"/>
     <use style="fill:#1f77b4;stroke:#1f77b4;stroke-linejoin:miter;" x="151.597403" xlink:href="#m3fd9f33f14" y="268.782107"/>
     <use style="fill:#1f77b4;stroke:#1f77b4;stroke-linejoin:miter;" x="187.831169" xlink:href="#m3fd9f33f14" y="219.627206"/>
     <use style="fill:#1f77b4;stroke:#1f77b4;stroke-linejoin:miter;" x="224.064935" xlink:href="#m3fd9f33f14" y="248.018042"/>
     <use style="fill:#1f77b4;stroke:#1f77b4;stroke-linejoin:miter;" x="260.298701" xlink:href="#m3fd9f33f14" y="200.096542"/>
     <use style="fill:#1f77b4;stroke:#1f77b4;stroke-linejoin:miter;" x="296.532468" xlink:href="#m3fd9f33f14" y="183.641964"/>
     <use style="fill:#1f77b4;stroke:#1f77b4;stroke-linejoin:miter;" x="332.766234" xlink:href="#m3fd9f33f14" y="188.584571"/>
     <use style="fill:#1f77b4;stroke:#1f77b4;stroke-linejoin:miter;" x="369" xlink:href="#m3fd9f33f14" y="131.770281"/>
     <use style="fill:#1f77b4;stroke:#1f77b4;stroke-linejoin:miter;" x="405.233766" xlink:href="#m3fd9f33f14" y="125.376175"/>
     <use style="fill:#1f77b4;stroke:#1f77b4;stroke-linejoin:miter;" x="441.467532" xlink:href="#m3fd9f33f14" y="114.64308"/>
     <use style="fill:#1f77b4;stroke:#1f77b4;stroke-linejoin:miter;" x="477.701299" xlink:href="#m3fd9f33f14" y="121.714157"/>
     <use style="fill:#1f77b4;stroke:#1f77b4;stroke-linejoin:miter;" x="513.935065" xlink:href="#m3fd9f33f14" y="125.489609"/>
     <use style="fill:#1f77b4;stroke:#1f77b4;stroke-linejoin:miter;" x="550.168831" xlink:href="#m3fd9f33f14" y="119.90496"/>
     <use style="fill:#1f77b4;stroke:#1f77b4;stroke-linejoin:miter;" x="586.402597" xlink:href="#m3fd9f33f14" y="68.160668"/>
     <use style="fill:#1f77b4;stroke:#1f77b4;stroke-linejoin:miter;" x="622.636364" xlink:href="#m3fd9f33f14" y="78.991521"/>
    </g>
   </g>
   <g id="line2d_16">
    <path clip-path="url(#pe52b6c389c)" d="M 115.363636 250.214404 
L 151.597403 252.334262 
L 187.831169 223.673791 
L 224.064935 233.482371 
L 260.298701 200.570879 
L 296.532468 196.264036 
L 332.766234 164.409647 
L 369 159.081739 
L 405.233766 161.392383 
L 441.467532 185.555223 
L 477.701299 131.205615 
L 513.935065 133.463263 
L 550.168831 94.369561 
L 586.402597 73.955336 
L 622.636364 50.22 
" style="fill:none;stroke:#008000;stroke-dasharray:4.81,2.08;stroke-dashoffset:0;stroke-width:1.3;"/>
    <defs>
     <path d="M 0 -3 
L -0.673542 -0.927051 
L -2.85317 -0.927051 
L -1.089814 0.354102 
L -1.763356 2.427051 
L -0 1.145898 
L 1.763356 2.427051 
L 1.089814 0.354102 
L 2.85317 -0.927051 
L 0.673542 -0.927051 
z
" id="m80305f5883" style="stroke:#008000;stroke-linejoin:bevel;"/>
    </defs>
    <g clip-path="url(#pe52b6c389c)">
     <use style="fill:#008000;stroke:#008000;stroke-linejoin:bevel;" x="115.363636" xlink:href="#m80305f5883" y="250.214404"/>
     <use style="fill:#008000;stroke:#008000;stroke-linejoin:bevel;" x="151.597403" xlink:href="#m80305f5883" y="252.334262"/>
     <use style="fill:#008000;stroke:#008000;stroke-linejoin:bevel;" x="187.831169" xlink:href="#m80305f5883" y="223.673791"/>
     <use style="fill:#008000;stroke:#008000;stroke-linejoin:bevel;" x="224.064935" xlink:href="#m80305f5883" y="233.482371"/>
     <use style="fill:#008000;stroke:#008000;stroke-linejoin:bevel;" x="260.298701" xlink:href="#m80305f5883" y="200.570879"/>
     <use style="fill:#008000;stroke:#008000;stroke-linejoin:bevel;" x="296.532468" xlink:href="#m80305f5883" y="196.264036"/>
     <use style="fill:#008000;stroke:#008000;stroke-linejoin:bevel;" x="332.766234" xlink:href="#m80305f5883" y="164.409647"/>
     <use style="fill:#008000;stroke:#008000;stroke-linejoin:bevel;" x="369" xlink:href="#m80305f5883" y="159.081739"/>
     <use style="fill:#008000;stroke:#008000;stroke-linejoin:bevel;" x="405.233766" xlink:href="#m80305f5883" y="161.392383"/>
     <use style="fill:#008000;stroke:#008000;stroke-linejoin:bevel;" x="441.467532" xlink:href="#m80305f5883" y="185.555223"/>
     <use style="fill:#008000;stroke:#008000;stroke-linejoin:bevel;" x="477.701299" xlink:href="#m80305f5883" y="131.205615"/>
     <use style="fill:#008000;stroke:#008000;stroke-linejoin:bevel;" x="513.935065" xlink:href="#m80305f5883" y="133.463263"/>
     <use style="fill:#008000;stroke:#008000;stroke-linejoin:bevel;" x="550.168831" xlink:href="#m80305f5883" y="94.369561"/>
     <use style="fill:#008000;stroke:#008000;stroke-linejoin:bevel;" x="586.402597" xlink:href="#m80305f5883" y="73.955336"/>
     <use style="fill:#008000;stroke:#008000;stroke-linejoin:bevel;" x="622.636364" xlink:href="#m80305f5883" y="50.22"/>
    </g>
   </g>
   <g id="line2d_17">
    <path clip-path="url(#pe52b6c389c)" d="M 115.363636 265.552709 
L 151.597403 227.120249 
L 187.831169 238.254679 
L 224.064935 248.290064 
L 260.298701 183.005337 
L 296.532468 181.05846 
L 332.766234 170.204003 
L 369 205.0093 
L 405.233766 204.972245 
L 441.467532 179.932814 
L 477.701299 108.28147 
L 513.935065 98.462758 
L 550.168831 93.463604 
L 586.402597 54.507341 
L 622.636364 52.826586 
" style="fill:none;stroke:#00bfbf;stroke-dasharray:4.81,2.08;stroke-dashoffset:0;stroke-width:1.3;"/>
    <defs>
     <path d="M -0 2.75 
L 2.75 -2.75 
L -2.75 -2.75 
z
" id="m2d7423133c" style="stroke:#00bfbf;stroke-linejoin:miter;"/>
    </defs>
    <g clip-path="url(#pe52b6c389c)">
     <use style="fill:#00bfbf;stroke:#00bfbf;stroke-linejoin:miter;" x="115.363636" xlink:href="#m2d7423133c" y="265.552709"/>
     <use style="fill:#00bfbf;stroke:#00bfbf;stroke-linejoin:miter;" x="151.597403" xlink:href="#m2d7423133c" y="227.120249"/>
     <use style="fill:#00bfbf;stroke:#00bfbf;stroke-linejoin:miter;" x="187.831169" xlink:href="#m2d7423133c" y="238.254679"/>
     <use style="fill:#00bfbf;stroke:#00bfbf;stroke-linejoin:miter;" x="224.064935" xlink:href="#m2d7423133c" y="248.290064"/>
     <use style="fill:#00bfbf;stroke:#00bfbf;stroke-linejoin:miter;" x="260.298701" xlink:href="#m2d7423133c" y="183.005337"/>
     <use style="fill:#00bfbf;stroke:#00bfbf;stroke-linejoin:miter;" x="296.532468" xlink:href="#m2d7423133c" y="181.05846"/>
     <use style="fill:#00bfbf;stroke:#00bfbf;stroke-linejoin:miter;" x="332.766234" xlink:href="#m2d7423133c" y="170.204003"/>
     <use style="fill:#00bfbf;stroke:#00bfbf;stroke-linejoin:miter;" x="369" xlink:href="#m2d7423133c" y="205.0093"/>
     <use style="fill:#00bfbf;stroke:#00bfbf;stroke-linejoin:miter;" x="405.233766" xlink:href="#m2d7423133c" y="204.972245"/>
     <use style="fill:#00bfbf;stroke:#00bfbf;stroke-linejoin:miter;" x="441.467532" xlink:href="#m2d7423133c" y="179.932814"/>
     <use style="fill:#00bfbf;stroke:#00bfbf;stroke-linejoin:miter;" x="477.701299" xlink:href="#m2d7423133c" y="108.28147"/>
     <use style="fill:#00bfbf;stroke:#00bfbf;stroke-linejoin:miter;" x="513.935065" xlink:href="#m2d7423133c" y="98.462758"/>
     <use style="fill:#00bfbf;stroke:#00bfbf;stroke-linejoin:miter;" x="550.168831" xlink:href="#m2d7423133c" y="93.463604"/>
     <use style="fill:#00bfbf;stroke:#00bfbf;stroke-linejoin:miter;" x="586.402597" xlink:href="#m2d7423133c" y="54.507341"/>
     <use style="fill:#00bfbf;stroke:#00bfbf;stroke-linejoin:miter;" x="622.636364" xlink:href="#m2d7423133c" y="52.826586"/>
    </g>
   </g>
   <g id="line2d_18">
    <path clip-path="url(#pe52b6c389c)" d="M 115.363636 277.02 
L 151.597403 272.320983 
L 187.831169 238.809572 
L 224.064935 239.198213 
L 260.298701 176.521098 
L 296.532468 216.780722 
L 332.766234 210.756794 
L 369 168.571633 
L 405.233766 180.955133 
L 441.467532 173.588629 
L 477.701299 123.771982 
L 513.935065 113.914646 
L 550.168831 120.044567 
L 586.402597 81.233512 
L 622.636364 53.057076 
" style="fill:none;stroke:#ff0000;stroke-dasharray:4.81,2.08;stroke-dashoffset:0;stroke-width:1.3;"/>
    <defs>
     <path d="M 0 -2.25 
L -1.948557 -1.125 
L -1.948557 1.125 
L -0 2.25 
L 1.948557 1.125 
L 1.948557 -1.125 
z
" id="m460e654c9f" style="stroke:#ff0000;stroke-linejoin:miter;"/>
    </defs>
    <g clip-path="url(#pe52b6c389c)">
     <use style="fill:#ff0000;stroke:#ff0000;stroke-linejoin:miter;" x="115.363636" xlink:href="#m460e654c9f" y="277.02"/>
     <use style="fill:#ff0000;stroke:#ff0000;stroke-linejoin:miter;" x="151.597403" xlink:href="#m460e654c9f" y="272.320983"/>
     <use style="fill:#ff0000;stroke:#ff0000;stroke-linejoin:miter;" x="187.831169" xlink:href="#m460e654c9f" y="238.809572"/>
     <use style="fill:#ff0000;stroke:#ff0000;stroke-linejoin:miter;" x="224.064935" xlink:href="#m460e654c9f" y="239.198213"/>
     <use style="fill:#ff0000;stroke:#ff0000;stroke-linejoin:miter;" x="260.298701" xlink:href="#m460e654c9f" y="176.521098"/>
     <use style="fill:#ff0000;stroke:#ff0000;stroke-linejoin:miter;" x="296.532468" xlink:href="#m460e654c9f" y="216.780722"/>
     <use style="fill:#ff0000;stroke:#ff0000;stroke-linejoin:miter;" x="332.766234" xlink:href="#m460e654c9f" y="210.756794"/>
     <use style="fill:#ff0000;stroke:#ff0000;stroke-linejoin:miter;" x="369" xlink:href="#m460e654c9f" y="168.571633"/>
     <use style="fill:#ff0000;stroke:#ff0000;stroke-linejoin:miter;" x="405.233766" xlink:href="#m460e654c9f" y="180.955133"/>
     <use style="fill:#ff0000;stroke:#ff0000;stroke-linejoin:miter;" x="441.467532" xlink:href="#m460e654c9f" y="173.588629"/>
     <use style="fill:#ff0000;stroke:#ff0000;stroke-linejoin:miter;" x="477.701299" xlink:href="#m460e654c9f" y="123.771982"/>
     <use style="fill:#ff0000;stroke:#ff0000;stroke-linejoin:miter;" x="513.935065" xlink:href="#m460e654c9f" y="113.914646"/>
     <use style="fill:#ff0000;stroke:#ff0000;stroke-linejoin:miter;" x="550.168831" xlink:href="#m460e654c9f" y="120.044567"/>
     <use style="fill:#ff0000;stroke:#ff0000;stroke-linejoin:miter;" x="586.402597" xlink:href="#m460e654c9f" y="81.233512"/>
     <use style="fill:#ff0000;stroke:#ff0000;stroke-linejoin:miter;" x="622.636364" xlink:href="#m460e654c9f" y="53.057076"/>
    </g>
   </g>
   <g id="patch_3">
    <path d="M 90 288.36 
L 90 38.88 
" style="fill:none;stroke:#000000;stroke-linecap:square;stroke-linejoin:miter;stroke-width:0.8;"/>
   </g>
   <g id="patch_4">
    <path d="M 648 288.36 
L 648 38.88 
" style="fill:none;stroke:#000000;stroke-linecap:square;stroke-linejoin:miter;stroke-width:0.8;"/>
   </g>
   <g id="patch_5">
    <path d="M 90 288.36 
L 648 288.36 
" style="fill:none;stroke:#000000;stroke-linecap:square;stroke-linejoin:miter;stroke-width:0.8;"/>
   </g>
   <g id="patch_6">
    <path d="M 90 38.88 
L 648 38.88 
" style="fill:none;stroke:#000000;stroke-linecap:square;stroke-linejoin:miter;stroke-width:0.8;"/>
   </g>
   <g id="legend_1">
    <g id="patch_7">
     <path d="M 99.8 149.053437 
L 238.68 149.053437 
Q 241.48 149.053437 241.48 146.253437 
L 241.48 48.68 
Q 241.48 45.88 238.68 45.88 
L 99.8 45.88 
Q 97 45.88 97 48.68 
L 97 146.253437 
Q 97 149.053437 99.8 149.053437 
z
" style="fill:#ffffff;opacity:0.8;stroke:#cccccc;stroke-linejoin:miter;"/>
    </g>
    <g id="line2d_19">
     <path d="M 102.6 56.38 
L 130.6 56.38 
" style="fill:none;stroke:#0000ff;stroke-dasharray:4.81,2.08;stroke-dashoffset:0;stroke-width:1.3;"/>
    </g>
    <g id="line2d_20">
     <g>
      <use style="fill:#0000ff;stroke:#0000ff;stroke-linejoin:miter;" x="116.6" xlink:href="#m09495d4c18" y="56.38"/>
     </g>
    </g>
    <g id="text_16">
     <!-- BRN -->
     <g transform="translate(141.8 61.28)scale(0.14 -0.14)">
      <defs>
       <path d="M 2956 2163 
Q 3397 2069 3616 1863 
Q 3919 1575 3919 1159 
Q 3919 844 3719 555 
Q 3519 266 3170 133 
Q 2822 0 2106 0 
L 106 0 
L 106 116 
L 266 116 
Q 531 116 647 284 
Q 719 394 719 750 
L 719 3488 
Q 719 3881 628 3984 
Q 506 4122 266 4122 
L 106 4122 
L 106 4238 
L 1938 4238 
Q 2450 4238 2759 4163 
Q 3228 4050 3475 3764 
Q 3722 3478 3722 3106 
Q 3722 2788 3528 2536 
Q 3334 2284 2956 2163 
z
M 1319 2331 
Q 1434 2309 1582 2298 
Q 1731 2288 1909 2288 
Q 2366 2288 2595 2386 
Q 2825 2484 2947 2687 
Q 3069 2891 3069 3131 
Q 3069 3503 2766 3765 
Q 2463 4028 1881 4028 
Q 1569 4028 1319 3959 
L 1319 2331 
z
M 1319 306 
Q 1681 222 2034 222 
Q 2600 222 2897 476 
Q 3194 731 3194 1106 
Q 3194 1353 3059 1581 
Q 2925 1809 2622 1940 
Q 2319 2072 1872 2072 
Q 1678 2072 1540 2065 
Q 1403 2059 1319 2044 
L 1319 306 
z
" id="TimesNewRomanPSMT-42" transform="scale(0.015625)"/>
       <path d="M 4325 0 
L 3194 0 
L 1759 1981 
Q 1600 1975 1500 1975 
Q 1459 1975 1412 1976 
Q 1366 1978 1316 1981 
L 1316 750 
Q 1316 350 1403 253 
Q 1522 116 1759 116 
L 1925 116 
L 1925 0 
L 109 0 
L 109 116 
L 269 116 
Q 538 116 653 291 
Q 719 388 719 750 
L 719 3488 
Q 719 3888 631 3984 
Q 509 4122 269 4122 
L 109 4122 
L 109 4238 
L 1653 4238 
Q 2328 4238 2648 4139 
Q 2969 4041 3192 3777 
Q 3416 3513 3416 3147 
Q 3416 2756 3161 2468 
Q 2906 2181 2372 2063 
L 3247 847 
Q 3547 428 3762 290 
Q 3978 153 4325 116 
L 4325 0 
z
M 1316 2178 
Q 1375 2178 1419 2176 
Q 1463 2175 1491 2175 
Q 2097 2175 2405 2437 
Q 2713 2700 2713 3106 
Q 2713 3503 2464 3751 
Q 2216 4000 1806 4000 
Q 1625 4000 1316 3941 
L 1316 2178 
z
" id="TimesNewRomanPSMT-52" transform="scale(0.015625)"/>
       <path d="M -84 4238 
L 1066 4238 
L 3656 1059 
L 3656 3503 
Q 3656 3894 3569 3991 
Q 3453 4122 3203 4122 
L 3056 4122 
L 3056 4238 
L 4531 4238 
L 4531 4122 
L 4381 4122 
Q 4113 4122 4000 3959 
Q 3931 3859 3931 3503 
L 3931 -69 
L 3819 -69 
L 1025 3344 
L 1025 734 
Q 1025 344 1109 247 
Q 1228 116 1475 116 
L 1625 116 
L 1625 0 
L 150 0 
L 150 116 
L 297 116 
Q 569 116 681 278 
Q 750 378 750 734 
L 750 3681 
Q 566 3897 470 3965 
Q 375 4034 191 4094 
Q 100 4122 -84 4122 
L -84 4238 
z
" id="TimesNewRomanPSMT-4e" transform="scale(0.015625)"/>
      </defs>
      <use xlink:href="#TimesNewRomanPSMT-42"/>
      <use x="66.699219" xlink:href="#TimesNewRomanPSMT-52"/>
      <use x="133.398438" xlink:href="#TimesNewRomanPSMT-4e"/>
     </g>
    </g>
    <g id="line2d_21">
     <path d="M 102.6 76.174687 
L 130.6 76.174687 
" style="fill:none;stroke:#1f77b4;stroke-dasharray:4.81,2.08;stroke-dashoffset:0;stroke-width:1.3;"/>
    </g>
    <g id="line2d_22">
     <g>
      <use style="fill:#1f77b4;stroke:#1f77b4;stroke-linejoin:miter;" x="116.6" xlink:href="#m3fd9f33f14" y="76.174687"/>
     </g>
    </g>
    <g id="text_17">
     <!-- BRB-C -->
     <g transform="translate(141.8 81.074687)scale(0.14 -0.14)">
      <defs>
       <path d="M 259 1672 
L 1875 1672 
L 1875 1200 
L 259 1200 
L 259 1672 
z
" id="TimesNewRomanPSMT-2d" transform="scale(0.015625)"/>
       <path d="M 3853 4334 
L 3950 2894 
L 3853 2894 
Q 3659 3541 3300 3825 
Q 2941 4109 2438 4109 
Q 2016 4109 1675 3895 
Q 1334 3681 1139 3212 
Q 944 2744 944 2047 
Q 944 1472 1128 1050 
Q 1313 628 1683 403 
Q 2053 178 2528 178 
Q 2941 178 3256 354 
Q 3572 531 3950 1056 
L 4047 994 
Q 3728 428 3303 165 
Q 2878 -97 2294 -97 
Q 1241 -97 663 684 
Q 231 1266 231 2053 
Q 231 2688 515 3219 
Q 800 3750 1298 4042 
Q 1797 4334 2388 4334 
Q 2847 4334 3294 4109 
Q 3425 4041 3481 4041 
Q 3566 4041 3628 4100 
Q 3709 4184 3744 4334 
L 3853 4334 
z
" id="TimesNewRomanPSMT-43" transform="scale(0.015625)"/>
      </defs>
      <use xlink:href="#TimesNewRomanPSMT-42"/>
      <use x="66.699219" xlink:href="#TimesNewRomanPSMT-52"/>
      <use x="133.398438" xlink:href="#TimesNewRomanPSMT-42"/>
      <use x="200.097656" xlink:href="#TimesNewRomanPSMT-2d"/>
      <use x="233.398438" xlink:href="#TimesNewRomanPSMT-43"/>
     </g>
    </g>
    <g id="line2d_23">
     <path d="M 102.6 95.969375 
L 130.6 95.969375 
" style="fill:none;stroke:#008000;stroke-dasharray:4.81,2.08;stroke-dashoffset:0;stroke-width:1.3;"/>
    </g>
    <g id="line2d_24">
     <g>
      <use style="fill:#008000;stroke:#008000;stroke-linejoin:bevel;" x="116.6" xlink:href="#m80305f5883" y="95.969375"/>
     </g>
    </g>
    <g id="text_18">
     <!-- FIE-URC -->
     <g transform="translate(141.8 100.869375)scale(0.14 -0.14)">
      <defs>
       <path d="M 1309 4006 
L 1309 2341 
L 2081 2341 
Q 2347 2341 2470 2458 
Q 2594 2575 2634 2922 
L 2750 2922 
L 2750 1488 
L 2634 1488 
Q 2631 1734 2570 1850 
Q 2509 1966 2401 2023 
Q 2294 2081 2081 2081 
L 1309 2081 
L 1309 750 
Q 1309 428 1350 325 
Q 1381 247 1481 191 
Q 1619 116 1769 116 
L 1922 116 
L 1922 0 
L 103 0 
L 103 116 
L 253 116 
Q 516 116 634 269 
Q 709 369 709 750 
L 709 3488 
Q 709 3809 669 3913 
Q 638 3991 541 4047 
Q 406 4122 253 4122 
L 103 4122 
L 103 4238 
L 3256 4238 
L 3297 3306 
L 3188 3306 
Q 3106 3603 2998 3742 
Q 2891 3881 2733 3943 
Q 2575 4006 2244 4006 
L 1309 4006 
z
" id="TimesNewRomanPSMT-46" transform="scale(0.015625)"/>
       <path d="M 1975 116 
L 1975 0 
L 159 0 
L 159 116 
L 309 116 
Q 572 116 691 269 
Q 766 369 766 750 
L 766 3488 
Q 766 3809 725 3913 
Q 694 3991 597 4047 
Q 459 4122 309 4122 
L 159 4122 
L 159 4238 
L 1975 4238 
L 1975 4122 
L 1822 4122 
Q 1563 4122 1444 3969 
Q 1366 3869 1366 3488 
L 1366 750 
Q 1366 428 1406 325 
Q 1438 247 1538 191 
Q 1672 116 1822 116 
L 1975 116 
z
" id="TimesNewRomanPSMT-49" transform="scale(0.015625)"/>
       <path d="M 1338 4006 
L 1338 2331 
L 2269 2331 
Q 2631 2331 2753 2441 
Q 2916 2584 2934 2947 
L 3050 2947 
L 3050 1472 
L 2934 1472 
Q 2891 1781 2847 1869 
Q 2791 1978 2662 2040 
Q 2534 2103 2269 2103 
L 1338 2103 
L 1338 706 
Q 1338 425 1363 364 
Q 1388 303 1450 267 
Q 1513 231 1688 231 
L 2406 231 
Q 2766 231 2928 281 
Q 3091 331 3241 478 
Q 3434 672 3638 1063 
L 3763 1063 
L 3397 0 
L 131 0 
L 131 116 
L 281 116 
Q 431 116 566 188 
Q 666 238 702 338 
Q 738 438 738 747 
L 738 3500 
Q 738 3903 656 3997 
Q 544 4122 281 4122 
L 131 4122 
L 131 4238 
L 3397 4238 
L 3444 3309 
L 3322 3309 
Q 3256 3644 3176 3769 
Q 3097 3894 2941 3959 
Q 2816 4006 2500 4006 
L 1338 4006 
z
" id="TimesNewRomanPSMT-45" transform="scale(0.015625)"/>
       <path d="M 3053 4122 
L 3053 4238 
L 4553 4238 
L 4553 4122 
L 4394 4122 
Q 4144 4122 4009 3913 
Q 3944 3816 3944 3463 
L 3944 1744 
Q 3944 1106 3817 754 
Q 3691 403 3320 151 
Q 2950 -100 2313 -100 
Q 1619 -100 1259 140 
Q 900 381 750 788 
Q 650 1066 650 1831 
L 650 3488 
Q 650 3878 542 4000 
Q 434 4122 194 4122 
L 34 4122 
L 34 4238 
L 1866 4238 
L 1866 4122 
L 1703 4122 
Q 1441 4122 1328 3956 
Q 1250 3844 1250 3488 
L 1250 1641 
Q 1250 1394 1295 1075 
Q 1341 756 1459 578 
Q 1578 400 1801 284 
Q 2025 169 2350 169 
Q 2766 169 3094 350 
Q 3422 531 3542 814 
Q 3663 1097 3663 1772 
L 3663 3488 
Q 3663 3884 3575 3984 
Q 3453 4122 3213 4122 
L 3053 4122 
z
" id="TimesNewRomanPSMT-55" transform="scale(0.015625)"/>
      </defs>
      <use xlink:href="#TimesNewRomanPSMT-46"/>
      <use x="55.615234" xlink:href="#TimesNewRomanPSMT-49"/>
      <use x="88.916016" xlink:href="#TimesNewRomanPSMT-45"/>
      <use x="150" xlink:href="#TimesNewRomanPSMT-2d"/>
      <use x="183.300781" xlink:href="#TimesNewRomanPSMT-55"/>
      <use x="255.517578" xlink:href="#TimesNewRomanPSMT-52"/>
      <use x="322.216797" xlink:href="#TimesNewRomanPSMT-43"/>
     </g>
    </g>
    <g id="line2d_25">
     <path d="M 102.6 115.764062 
L 130.6 115.764062 
" style="fill:none;stroke:#00bfbf;stroke-dasharray:4.81,2.08;stroke-dashoffset:0;stroke-width:1.3;"/>
    </g>
    <g id="line2d_26">
     <g>
      <use style="fill:#00bfbf;stroke:#00bfbf;stroke-linejoin:miter;" x="116.6" xlink:href="#m2d7423133c" y="115.764062"/>
     </g>
    </g>
    <g id="text_19">
     <!-- RIMER-PCA -->
     <g transform="translate(141.8 120.664062)scale(0.14 -0.14)">
      <defs>
       <path d="M 2619 0 
L 981 3566 
L 981 734 
Q 981 344 1066 247 
Q 1181 116 1431 116 
L 1581 116 
L 1581 0 
L 106 0 
L 106 116 
L 256 116 
Q 525 116 638 278 
Q 706 378 706 734 
L 706 3503 
Q 706 3784 644 3909 
Q 600 4000 483 4061 
Q 366 4122 106 4122 
L 106 4238 
L 1306 4238 
L 2844 922 
L 4356 4238 
L 5556 4238 
L 5556 4122 
L 5409 4122 
Q 5138 4122 5025 3959 
Q 4956 3859 4956 3503 
L 4956 734 
Q 4956 344 5044 247 
Q 5159 116 5409 116 
L 5556 116 
L 5556 0 
L 3756 0 
L 3756 116 
L 3906 116 
Q 4178 116 4288 278 
Q 4356 378 4356 734 
L 4356 3566 
L 2722 0 
L 2619 0 
z
" id="TimesNewRomanPSMT-4d" transform="scale(0.015625)"/>
       <path d="M 1313 1984 
L 1313 750 
Q 1313 350 1400 253 
Q 1519 116 1759 116 
L 1922 116 
L 1922 0 
L 106 0 
L 106 116 
L 266 116 
Q 534 116 650 291 
Q 713 388 713 750 
L 713 3488 
Q 713 3888 628 3984 
Q 506 4122 266 4122 
L 106 4122 
L 106 4238 
L 1659 4238 
Q 2228 4238 2556 4120 
Q 2884 4003 3109 3725 
Q 3334 3447 3334 3066 
Q 3334 2547 2992 2222 
Q 2650 1897 2025 1897 
Q 1872 1897 1694 1919 
Q 1516 1941 1313 1984 
z
M 1313 2163 
Q 1478 2131 1606 2115 
Q 1734 2100 1825 2100 
Q 2150 2100 2386 2351 
Q 2622 2603 2622 3003 
Q 2622 3278 2509 3514 
Q 2397 3750 2190 3867 
Q 1984 3984 1722 3984 
Q 1563 3984 1313 3925 
L 1313 2163 
z
" id="TimesNewRomanPSMT-50" transform="scale(0.015625)"/>
       <path d="M 2928 1419 
L 1288 1419 
L 1000 750 
Q 894 503 894 381 
Q 894 284 986 211 
Q 1078 138 1384 116 
L 1384 0 
L 50 0 
L 50 116 
Q 316 163 394 238 
Q 553 388 747 847 
L 2238 4334 
L 2347 4334 
L 3822 809 
Q 4000 384 4145 257 
Q 4291 131 4550 116 
L 4550 0 
L 2878 0 
L 2878 116 
Q 3131 128 3220 200 
Q 3309 272 3309 375 
Q 3309 513 3184 809 
L 2928 1419 
z
M 2841 1650 
L 2122 3363 
L 1384 1650 
L 2841 1650 
z
" id="TimesNewRomanPSMT-41" transform="scale(0.015625)"/>
      </defs>
      <use xlink:href="#TimesNewRomanPSMT-52"/>
      <use x="66.699219" xlink:href="#TimesNewRomanPSMT-49"/>
      <use x="100" xlink:href="#TimesNewRomanPSMT-4d"/>
      <use x="188.916016" xlink:href="#TimesNewRomanPSMT-45"/>
      <use x="250" xlink:href="#TimesNewRomanPSMT-52"/>
      <use x="316.699219" xlink:href="#TimesNewRomanPSMT-2d"/>
      <use x="350" xlink:href="#TimesNewRomanPSMT-50"/>
      <use x="405.615234" xlink:href="#TimesNewRomanPSMT-43"/>
      <use x="472.314453" xlink:href="#TimesNewRomanPSMT-41"/>
     </g>
    </g>
    <g id="line2d_27">
     <path d="M 102.6 135.55875 
L 130.6 135.55875 
" style="fill:none;stroke:#ff0000;stroke-dasharray:4.81,2.08;stroke-dashoffset:0;stroke-width:1.3;"/>
    </g>
    <g id="line2d_28">
     <g>
      <use style="fill:#ff0000;stroke:#ff0000;stroke-linejoin:miter;" x="116.6" xlink:href="#m460e654c9f" y="135.55875"/>
     </g>
    </g>
    <g id="text_20">
     <!-- The actual status -->
     <g transform="translate(141.8 140.45875)scale(0.14 -0.14)">
      <defs>
       <path d="M 3703 4238 
L 3750 3244 
L 3631 3244 
Q 3597 3506 3538 3619 
Q 3441 3800 3280 3886 
Q 3119 3972 2856 3972 
L 2259 3972 
L 2259 734 
Q 2259 344 2344 247 
Q 2463 116 2709 116 
L 2856 116 
L 2856 0 
L 1059 0 
L 1059 116 
L 1209 116 
Q 1478 116 1591 278 
Q 1659 378 1659 734 
L 1659 3972 
L 1150 3972 
Q 853 3972 728 3928 
Q 566 3869 450 3700 
Q 334 3531 313 3244 
L 194 3244 
L 244 4238 
L 3703 4238 
z
" id="TimesNewRomanPSMT-54" transform="scale(0.015625)"/>
       <path d="M 1041 4444 
L 1041 2350 
Q 1388 2731 1591 2839 
Q 1794 2947 1997 2947 
Q 2241 2947 2416 2812 
Q 2591 2678 2675 2391 
Q 2734 2191 2734 1659 
L 2734 647 
Q 2734 375 2778 275 
Q 2809 200 2884 156 
Q 2959 113 3159 113 
L 3159 0 
L 1753 0 
L 1753 113 
L 1819 113 
Q 2019 113 2097 173 
Q 2175 234 2206 353 
Q 2216 403 2216 647 
L 2216 1659 
Q 2216 2128 2167 2275 
Q 2119 2422 2012 2495 
Q 1906 2569 1756 2569 
Q 1603 2569 1437 2487 
Q 1272 2406 1041 2159 
L 1041 647 
Q 1041 353 1073 281 
Q 1106 209 1195 161 
Q 1284 113 1503 113 
L 1503 0 
L 84 0 
L 84 113 
Q 275 113 384 172 
Q 447 203 484 290 
Q 522 378 522 647 
L 522 3238 
Q 522 3728 498 3840 
Q 475 3953 426 3993 
Q 378 4034 297 4034 
Q 231 4034 84 3984 
L 41 4094 
L 897 4444 
L 1041 4444 
z
" id="TimesNewRomanPSMT-68" transform="scale(0.015625)"/>
       <path d="M 681 1784 
Q 678 1147 991 784 
Q 1303 422 1725 422 
Q 2006 422 2214 576 
Q 2422 731 2563 1106 
L 2659 1044 
Q 2594 616 2278 264 
Q 1963 -88 1488 -88 
Q 972 -88 605 314 
Q 238 716 238 1394 
Q 238 2128 614 2539 
Q 991 2950 1559 2950 
Q 2041 2950 2350 2633 
Q 2659 2316 2659 1784 
L 681 1784 
z
M 681 1966 
L 2006 1966 
Q 1991 2241 1941 2353 
Q 1863 2528 1708 2628 
Q 1553 2728 1384 2728 
Q 1125 2728 920 2526 
Q 716 2325 681 1966 
z
" id="TimesNewRomanPSMT-65" transform="scale(0.015625)"/>
       <path id="TimesNewRomanPSMT-20" transform="scale(0.015625)"/>
       <path d="M 1822 413 
Q 1381 72 1269 19 
Q 1100 -59 909 -59 
Q 613 -59 420 144 
Q 228 347 228 678 
Q 228 888 322 1041 
Q 450 1253 767 1440 
Q 1084 1628 1822 1897 
L 1822 2009 
Q 1822 2438 1686 2597 
Q 1550 2756 1291 2756 
Q 1094 2756 978 2650 
Q 859 2544 859 2406 
L 866 2225 
Q 866 2081 792 2003 
Q 719 1925 600 1925 
Q 484 1925 411 2006 
Q 338 2088 338 2228 
Q 338 2497 613 2722 
Q 888 2947 1384 2947 
Q 1766 2947 2009 2819 
Q 2194 2722 2281 2516 
Q 2338 2381 2338 1966 
L 2338 994 
Q 2338 584 2353 492 
Q 2369 400 2405 369 
Q 2441 338 2488 338 
Q 2538 338 2575 359 
Q 2641 400 2828 588 
L 2828 413 
Q 2478 -56 2159 -56 
Q 2006 -56 1915 50 
Q 1825 156 1822 413 
z
M 1822 616 
L 1822 1706 
Q 1350 1519 1213 1441 
Q 966 1303 859 1153 
Q 753 1003 753 825 
Q 753 600 887 451 
Q 1022 303 1197 303 
Q 1434 303 1822 616 
z
" id="TimesNewRomanPSMT-61" transform="scale(0.015625)"/>
       <path d="M 2631 1088 
Q 2516 522 2178 217 
Q 1841 -88 1431 -88 
Q 944 -88 581 321 
Q 219 731 219 1428 
Q 219 2103 620 2525 
Q 1022 2947 1584 2947 
Q 2006 2947 2278 2723 
Q 2550 2500 2550 2259 
Q 2550 2141 2473 2067 
Q 2397 1994 2259 1994 
Q 2075 1994 1981 2113 
Q 1928 2178 1911 2362 
Q 1894 2547 1784 2644 
Q 1675 2738 1481 2738 
Q 1169 2738 978 2506 
Q 725 2200 725 1697 
Q 725 1184 976 792 
Q 1228 400 1656 400 
Q 1963 400 2206 609 
Q 2378 753 2541 1131 
L 2631 1088 
z
" id="TimesNewRomanPSMT-63" transform="scale(0.015625)"/>
       <path d="M 1031 3803 
L 1031 2863 
L 1700 2863 
L 1700 2644 
L 1031 2644 
L 1031 788 
Q 1031 509 1111 412 
Q 1191 316 1316 316 
Q 1419 316 1516 380 
Q 1613 444 1666 569 
L 1788 569 
Q 1678 263 1478 108 
Q 1278 -47 1066 -47 
Q 922 -47 784 33 
Q 647 113 581 261 
Q 516 409 516 719 
L 516 2644 
L 63 2644 
L 63 2747 
Q 234 2816 414 2980 
Q 594 3144 734 3369 
Q 806 3488 934 3803 
L 1031 3803 
z
" id="TimesNewRomanPSMT-74" transform="scale(0.015625)"/>
       <path d="M 2709 2863 
L 2709 1128 
Q 2709 631 2732 520 
Q 2756 409 2807 365 
Q 2859 322 2928 322 
Q 3025 322 3147 375 
L 3191 266 
L 2334 -88 
L 2194 -88 
L 2194 519 
Q 1825 119 1631 15 
Q 1438 -88 1222 -88 
Q 981 -88 804 51 
Q 628 191 559 409 
Q 491 628 491 1028 
L 491 2306 
Q 491 2509 447 2587 
Q 403 2666 317 2708 
Q 231 2750 6 2747 
L 6 2863 
L 1009 2863 
L 1009 947 
Q 1009 547 1148 422 
Q 1288 297 1484 297 
Q 1619 297 1789 381 
Q 1959 466 2194 703 
L 2194 2325 
Q 2194 2569 2105 2655 
Q 2016 2741 1734 2747 
L 1734 2863 
L 2709 2863 
z
" id="TimesNewRomanPSMT-75" transform="scale(0.015625)"/>
       <path d="M 1184 4444 
L 1184 647 
Q 1184 378 1223 290 
Q 1263 203 1344 158 
Q 1425 113 1647 113 
L 1647 0 
L 244 0 
L 244 113 
Q 441 113 512 153 
Q 584 194 625 287 
Q 666 381 666 647 
L 666 3247 
Q 666 3731 644 3842 
Q 622 3953 573 3993 
Q 525 4034 450 4034 
Q 369 4034 244 3984 
L 191 4094 
L 1044 4444 
L 1184 4444 
z
" id="TimesNewRomanPSMT-6c" transform="scale(0.015625)"/>
       <path d="M 2050 2947 
L 2050 1972 
L 1947 1972 
Q 1828 2431 1642 2597 
Q 1456 2763 1169 2763 
Q 950 2763 815 2647 
Q 681 2531 681 2391 
Q 681 2216 781 2091 
Q 878 1963 1175 1819 
L 1631 1597 
Q 2266 1288 2266 781 
Q 2266 391 1970 151 
Q 1675 -88 1309 -88 
Q 1047 -88 709 6 
Q 606 38 541 38 
Q 469 38 428 -44 
L 325 -44 
L 325 978 
L 428 978 
Q 516 541 762 319 
Q 1009 97 1316 97 
Q 1531 97 1667 223 
Q 1803 350 1803 528 
Q 1803 744 1651 891 
Q 1500 1038 1047 1263 
Q 594 1488 453 1669 
Q 313 1847 313 2119 
Q 313 2472 555 2709 
Q 797 2947 1181 2947 
Q 1350 2947 1591 2875 
Q 1750 2828 1803 2828 
Q 1853 2828 1881 2850 
Q 1909 2872 1947 2947 
L 2050 2947 
z
" id="TimesNewRomanPSMT-73" transform="scale(0.015625)"/>
      </defs>
      <use xlink:href="#TimesNewRomanPSMT-54"/>
      <use x="61.083984" xlink:href="#TimesNewRomanPSMT-68"/>
      <use x="111.083984" xlink:href="#TimesNewRomanPSMT-65"/>
      <use x="155.46875" xlink:href="#TimesNewRomanPSMT-20"/>
      <use x="180.46875" xlink:href="#TimesNewRomanPSMT-61"/>
      <use x="224.853516" xlink:href="#TimesNewRomanPSMT-63"/>
      <use x="269.238281" xlink:href="#TimesNewRomanPSMT-74"/>
      <use x="297.021484" xlink:href="#TimesNewRomanPSMT-75"/>
      <use x="347.021484" xlink:href="#TimesNewRomanPSMT-61"/>
      <use x="391.40625" xlink:href="#TimesNewRomanPSMT-6c"/>
      <use x="419.189453" xlink:href="#TimesNewRomanPSMT-20"/>
      <use x="444.189453" xlink:href="#TimesNewRomanPSMT-73"/>
      <use x="483.105469" xlink:href="#TimesNewRomanPSMT-74"/>
      <use x="510.888672" xlink:href="#TimesNewRomanPSMT-61"/>
      <use x="555.273438" xlink:href="#TimesNewRomanPSMT-74"/>
      <use x="583.056641" xlink:href="#TimesNewRomanPSMT-75"/>
      <use x="633.056641" xlink:href="#TimesNewRomanPSMT-73"/>
     </g>
    </g>
   </g>
  </g>
 </g>
 <defs>
  <clipPath id="pe52b6c389c">
   <rect height="249.48" width="558" x="90" y="38.88"/>
  </clipPath>
 </defs>
</svg>
