<?xml version="1.0" encoding="utf-8" standalone="no"?>
<!DOCTYPE svg PUBLIC "-//W3C//DTD SVG 1.1//EN"
  "http://www.w3.org/Graphics/SVG/1.1/DTD/svg11.dtd">
<!-- Created with matplotlib (http://matplotlib.org/) -->
<svg height="343.44pt" version="1.1" viewBox="0 0 460.8 343.44" width="460.8pt" xmlns="http://www.w3.org/2000/svg" xmlns:xlink="http://www.w3.org/1999/xlink">
 <defs>
  <style type="text/css">
*{stroke-linecap:butt;stroke-linejoin:round;}
  </style>
 </defs>
 <g id="figure_1">
  <g id="patch_1">
   <path d="M 0 343.44 
L 460.8 343.44 
L 460.8 0 
L 0 0 
z
" style="fill:#ffffff;"/>
  </g>
  <g id="axes_1">
   <g id="patch_2">
    <path d="M 57.6 305.6616 
L 414.72 305.6616 
L 414.72 41.2128 
L 57.6 41.2128 
z
" style="fill:#ffffff;"/>
   </g>
   <g id="matplotlib.axis_1">
    <g id="xtick_1">
     <g id="line2d_1">
      <defs>
       <path d="M 0 0 
L 0 -3.5 
" id="m96ad45a38b" style="stroke:#000000;stroke-width:0.8;"/>
      </defs>
      <g>
       <use style="stroke:#000000;stroke-width:0.8;" x="73.832727" xlink:href="#m96ad45a38b" y="305.6616"/>
      </g>
     </g>
     <g id="text_1">
      <!-- 0 -->
      <defs>
       <path d="M 3.609375 32.71875 
Q 3.609375 44.046875 7.03125 52.21875 
Q 10.453125 60.40625 16.109375 64.40625 
Q 20.515625 67.578125 25.203125 67.578125 
Q 32.8125 67.578125 38.875 59.8125 
Q 46.4375 50.203125 46.4375 33.734375 
Q 46.4375 22.21875 43.109375 14.15625 
Q 39.796875 6.109375 34.640625 2.46875 
Q 29.5 -1.171875 24.703125 -1.171875 
Q 15.234375 -1.171875 8.9375 10.015625 
Q 3.609375 19.4375 3.609375 32.71875 
z
M 13.1875 31.5 
Q 13.1875 17.828125 16.546875 9.1875 
Q 19.34375 1.90625 24.859375 1.90625 
Q 27.484375 1.90625 30.3125 4.265625 
Q 33.15625 6.640625 34.625 12.203125 
Q 36.859375 20.609375 36.859375 35.890625 
Q 36.859375 47.21875 34.515625 54.78125 
Q 32.765625 60.40625 29.984375 62.75 
Q 27.984375 64.359375 25.140625 64.359375 
Q 21.828125 64.359375 19.234375 61.375 
Q 15.71875 57.328125 14.453125 48.625 
Q 13.1875 39.9375 13.1875 31.5 
z
" id="TimesNewRomanPSMT-30"/>
      </defs>
      <g transform="translate(71.332727 316.10535)scale(0.1 -0.1)">
       <use xlink:href="#TimesNewRomanPSMT-30"/>
      </g>
     </g>
    </g>
    <g id="xtick_2">
     <g id="line2d_2">
      <g>
       <use style="stroke:#000000;stroke-width:0.8;" x="132.860826" xlink:href="#m96ad45a38b" y="305.6616"/>
      </g>
     </g>
     <g id="text_2">
      <!-- 2 -->
      <defs>
       <path d="M 45.84375 12.75 
L 41.21875 0 
L 2.15625 0 
L 2.15625 1.8125 
Q 19.390625 17.53125 26.421875 27.484375 
Q 33.453125 37.453125 33.453125 45.703125 
Q 33.453125 52 29.59375 56.046875 
Q 25.734375 60.109375 20.359375 60.109375 
Q 15.484375 60.109375 11.59375 57.25 
Q 7.71875 54.390625 5.859375 48.875 
L 4.046875 48.875 
Q 5.28125 57.90625 10.328125 62.734375 
Q 15.375 67.578125 22.953125 67.578125 
Q 31 67.578125 36.390625 62.40625 
Q 41.796875 57.234375 41.796875 50.203125 
Q 41.796875 45.171875 39.453125 40.140625 
Q 35.84375 32.234375 27.734375 23.390625 
Q 15.578125 10.109375 12.546875 7.375 
L 29.828125 7.375 
Q 35.109375 7.375 37.234375 7.765625 
Q 39.359375 8.15625 41.0625 9.34375 
Q 42.78125 10.546875 44.046875 12.75 
z
" id="TimesNewRomanPSMT-32"/>
      </defs>
      <g transform="translate(130.360826 316.10535)scale(0.1 -0.1)">
       <use xlink:href="#TimesNewRomanPSMT-32"/>
      </g>
     </g>
    </g>
    <g id="xtick_3">
     <g id="line2d_3">
      <g>
       <use style="stroke:#000000;stroke-width:0.8;" x="191.888926" xlink:href="#m96ad45a38b" y="305.6616"/>
      </g>
     </g>
     <g id="text_3">
      <!-- 4 -->
      <defs>
       <path d="M 46.53125 24.421875 
L 46.53125 17.484375 
L 37.640625 17.484375 
L 37.640625 0 
L 29.59375 0 
L 29.59375 17.484375 
L 1.5625 17.484375 
L 1.5625 23.734375 
L 32.28125 67.578125 
L 37.640625 67.578125 
L 37.640625 24.421875 
z
M 29.59375 24.421875 
L 29.59375 57.28125 
L 6.34375 24.421875 
z
" id="TimesNewRomanPSMT-34"/>
      </defs>
      <g transform="translate(189.388926 316.10535)scale(0.1 -0.1)">
       <use xlink:href="#TimesNewRomanPSMT-34"/>
      </g>
     </g>
    </g>
    <g id="xtick_4">
     <g id="line2d_4">
      <g>
       <use style="stroke:#000000;stroke-width:0.8;" x="250.917025" xlink:href="#m96ad45a38b" y="305.6616"/>
      </g>
     </g>
     <g id="text_4">
      <!-- 6 -->
      <defs>
       <path d="M 44.828125 67.578125 
L 44.828125 65.765625 
Q 38.375 65.140625 34.296875 63.203125 
Q 30.21875 61.28125 26.234375 57.328125 
Q 22.265625 53.375 19.65625 48.515625 
Q 17.046875 43.65625 15.28125 36.96875 
Q 22.3125 41.796875 29.390625 41.796875 
Q 36.1875 41.796875 41.15625 36.328125 
Q 46.140625 30.859375 46.140625 22.265625 
Q 46.140625 13.96875 41.109375 7.125 
Q 35.0625 -1.171875 25.09375 -1.171875 
Q 18.3125 -1.171875 13.578125 3.328125 
Q 4.296875 12.0625 4.296875 25.984375 
Q 4.296875 34.859375 7.859375 42.859375 
Q 11.421875 50.875 18.03125 57.078125 
Q 24.65625 63.28125 30.703125 65.421875 
Q 36.765625 67.578125 42 67.578125 
z
M 14.453125 33.40625 
Q 13.578125 26.8125 13.578125 22.75 
Q 13.578125 18.0625 15.3125 12.5625 
Q 17.046875 7.078125 20.453125 3.859375 
Q 22.953125 1.5625 26.515625 1.5625 
Q 30.765625 1.5625 34.109375 5.5625 
Q 37.453125 9.578125 37.453125 17 
Q 37.453125 25.34375 34.125 31.4375 
Q 30.8125 37.546875 24.703125 37.546875 
Q 22.859375 37.546875 20.734375 36.765625 
Q 18.609375 35.984375 14.453125 33.40625 
z
" id="TimesNewRomanPSMT-36"/>
      </defs>
      <g transform="translate(248.417025 316.10535)scale(0.1 -0.1)">
       <use xlink:href="#TimesNewRomanPSMT-36"/>
      </g>
     </g>
    </g>
    <g id="xtick_5">
     <g id="line2d_5">
      <g>
       <use style="stroke:#000000;stroke-width:0.8;" x="309.945124" xlink:href="#m96ad45a38b" y="305.6616"/>
      </g>
     </g>
     <g id="text_5">
      <!-- 8 -->
      <defs>
       <path d="M 19.1875 33.34375 
Q 11.328125 39.796875 9.046875 43.703125 
Q 6.78125 47.609375 6.78125 51.8125 
Q 6.78125 58.25 11.765625 62.90625 
Q 16.75 67.578125 25 67.578125 
Q 33.015625 67.578125 37.890625 63.234375 
Q 42.78125 58.890625 42.78125 53.328125 
Q 42.78125 49.609375 40.140625 45.75 
Q 37.5 41.890625 29.15625 36.671875 
Q 37.75 30.03125 40.53125 26.21875 
Q 44.234375 21.234375 44.234375 15.71875 
Q 44.234375 8.734375 38.90625 3.78125 
Q 33.59375 -1.171875 24.953125 -1.171875 
Q 15.53125 -1.171875 10.25 4.734375 
Q 6.0625 9.46875 6.0625 15.09375 
Q 6.0625 19.484375 9.015625 23.796875 
Q 11.96875 28.125 19.1875 33.34375 
z
M 26.859375 38.578125 
Q 32.71875 43.84375 34.28125 46.890625 
Q 35.84375 49.953125 35.84375 53.8125 
Q 35.84375 58.9375 32.953125 61.84375 
Q 30.078125 64.75 25.09375 64.75 
Q 20.125 64.75 17 61.859375 
Q 13.875 58.984375 13.875 55.125 
Q 13.875 52.59375 15.15625 50.046875 
Q 16.453125 47.515625 18.84375 45.21875 
z
M 21.484375 31.5 
Q 17.4375 28.078125 15.484375 24.046875 
Q 13.53125 20.015625 13.53125 15.328125 
Q 13.53125 9.03125 16.96875 5.25 
Q 20.40625 1.46875 25.734375 1.46875 
Q 31 1.46875 34.171875 4.4375 
Q 37.359375 7.421875 37.359375 11.671875 
Q 37.359375 15.1875 35.5 17.96875 
Q 32.03125 23.140625 21.484375 31.5 
z
" id="TimesNewRomanPSMT-38"/>
      </defs>
      <g transform="translate(307.445124 316.10535)scale(0.1 -0.1)">
       <use xlink:href="#TimesNewRomanPSMT-38"/>
      </g>
     </g>
    </g>
    <g id="xtick_6">
     <g id="line2d_6">
      <g>
       <use style="stroke:#000000;stroke-width:0.8;" x="368.973223" xlink:href="#m96ad45a38b" y="305.6616"/>
      </g>
     </g>
     <g id="text_6">
      <!-- 10 -->
      <defs>
       <path d="M 11.71875 59.71875 
L 27.828125 67.578125 
L 29.4375 67.578125 
L 29.4375 11.671875 
Q 29.4375 6.109375 29.90625 4.734375 
Q 30.375 3.375 31.828125 2.640625 
Q 33.296875 1.90625 37.796875 1.8125 
L 37.796875 0 
L 12.890625 0 
L 12.890625 1.8125 
Q 17.578125 1.90625 18.9375 2.609375 
Q 20.3125 3.328125 20.84375 4.515625 
Q 21.390625 5.71875 21.390625 11.671875 
L 21.390625 47.40625 
Q 21.390625 54.640625 20.90625 56.6875 
Q 20.5625 58.25 19.65625 58.984375 
Q 18.75 59.71875 17.484375 59.71875 
Q 15.671875 59.71875 12.453125 58.203125 
z
" id="TimesNewRomanPSMT-31"/>
      </defs>
      <g transform="translate(363.973223 316.10535)scale(0.1 -0.1)">
       <use xlink:href="#TimesNewRomanPSMT-31"/>
       <use x="50" xlink:href="#TimesNewRomanPSMT-30"/>
      </g>
     </g>
    </g>
    <g id="text_7">
     <!-- Number of test -->
     <defs>
      <path d="M 28.65625 66.21875 
L 49.125 14.3125 
L 60.203125 53.078125 
Q 61.578125 57.859375 61.578125 60.5 
Q 61.578125 62.3125 60.296875 63.328125 
Q 59.03125 64.359375 55.5625 64.359375 
Q 54.984375 64.359375 54.34375 64.40625 
L 54.890625 66.21875 
L 76.171875 66.21875 
L 75.59375 64.40625 
Q 72.265625 64.453125 70.65625 63.71875 
Q 68.359375 62.703125 67.234375 61.078125 
Q 65.671875 58.796875 64.0625 53.078125 
L 48.484375 -1.515625 
L 46.734375 -1.515625 
L 24.703125 54.34375 
L 12.9375 13.09375 
Q 11.625 8.40625 11.625 5.90625 
Q 11.625 4.046875 12.8125 3.09375 
Q 14.015625 2.15625 18.5 1.8125 
L 18.015625 0 
L -2.78125 0 
L -2.09375 1.8125 
Q 1.8125 1.90625 3.125 2.484375 
Q 5.125 3.375 6.109375 4.78125 
Q 7.515625 6.9375 9.28125 13.09375 
L 22.40625 59.125 
Q 20.515625 62.0625 18.328125 63.15625 
Q 16.15625 64.265625 11.578125 64.40625 
L 12.109375 66.21875 
z
" id="TimesNewRomanPS-ItalicMT-4e"/>
      <path d="M 47.078125 43.015625 
L 38.578125 13.921875 
Q 36.671875 7.421875 36.671875 5.71875 
Q 36.671875 4.828125 36.984375 4.40625 
Q 37.3125 4 37.84375 4 
Q 38.671875 4 39.671875 4.75 
Q 40.671875 5.515625 44.734375 10.796875 
L 46.1875 9.671875 
Q 42.328125 3.5625 38.28125 0.6875 
Q 35.59375 -1.171875 33.109375 -1.171875 
Q 31.203125 -1.171875 30.125 -0.09375 
Q 29.046875 0.984375 29.046875 2.6875 
Q 29.046875 4.34375 29.6875 7.078125 
Q 30.46875 10.6875 34.125 22.796875 
Q 25.828125 9.1875 20.234375 4 
Q 14.65625 -1.171875 9.859375 -1.171875 
Q 7.625 -1.171875 6.0625 0.390625 
Q 4.5 1.953125 4.5 4.34375 
Q 4.5 8.015625 6.640625 15.578125 
L 10.890625 30.671875 
Q 12.453125 36.078125 12.453125 37.40625 
Q 12.453125 37.984375 12.03125 38.390625 
Q 11.625 38.8125 11.140625 38.8125 
Q 10.109375 38.8125 9.078125 38.078125 
Q 8.0625 37.359375 4.4375 32.671875 
L 2.9375 33.734375 
Q 6.59375 39.40625 10.6875 42.09375 
Q 13.8125 44.1875 16.453125 44.1875 
Q 18.265625 44.1875 19.40625 43.03125 
Q 20.5625 41.890625 20.5625 40.09375 
Q 20.5625 37.453125 18.609375 30.671875 
L 14.015625 14.890625 
Q 12.109375 8.453125 12.109375 6.734375 
Q 12.109375 5.8125 12.71875 5.25 
Q 13.328125 4.6875 14.359375 4.6875 
Q 15.96875 4.6875 18.546875 6.296875 
Q 21.140625 7.90625 25.453125 13.453125 
Q 29.78125 19 32.59375 23.859375 
Q 35.40625 28.71875 38.578125 39.3125 
L 39.65625 43.015625 
z
" id="TimesNewRomanPS-ItalicMT-75"/>
      <path d="M 21.6875 44.1875 
L 15.328125 22.171875 
Q 19.578125 29.9375 22.5625 33.84375 
Q 27.203125 39.890625 31.59375 42.625 
Q 34.1875 44.1875 37.015625 44.1875 
Q 39.453125 44.1875 41.0625 42.625 
Q 42.671875 41.0625 42.671875 38.625 
Q 42.671875 36.234375 41.546875 32.375 
L 38.09375 19.96875 
Q 46.046875 34.859375 53.171875 40.875 
Q 57.125 44.1875 60.984375 44.1875 
Q 63.234375 44.1875 64.671875 42.640625 
Q 66.109375 41.109375 66.109375 37.890625 
Q 66.109375 35.0625 65.234375 31.890625 
L 59.859375 12.890625 
Q 58.109375 6.6875 58.109375 6 
Q 58.109375 5.328125 58.546875 4.828125 
Q 58.84375 4.5 59.328125 4.5 
Q 59.8125 4.5 61.03125 5.421875 
Q 63.8125 7.5625 66.265625 11.078125 
L 67.875 10.0625 
Q 66.65625 8.109375 63.546875 4.6875 
Q 60.453125 1.265625 58.25 0.046875 
Q 56.0625 -1.171875 54.203125 -1.171875 
Q 52.484375 -1.171875 51.34375 0 
Q 50.203125 1.171875 50.203125 2.875 
Q 50.203125 5.21875 52.203125 12.3125 
L 56.640625 27.984375 
Q 58.15625 33.40625 58.25 33.984375 
Q 58.40625 34.90625 58.40625 35.796875 
Q 58.40625 37.015625 57.859375 37.703125 
Q 57.28125 38.375 56.546875 38.375 
Q 54.5 38.375 52.203125 36.28125 
Q 45.453125 30.078125 39.59375 18.890625 
Q 35.75 11.53125 32.375 0 
L 25 0 
L 33.34375 29.546875 
Q 34.71875 34.328125 34.71875 35.9375 
Q 34.71875 37.25 34.171875 37.890625 
Q 33.640625 38.53125 32.859375 38.53125 
Q 31.25 38.53125 29.4375 37.359375 
Q 26.515625 35.453125 21.890625 29.203125 
Q 17.28125 22.953125 14.75 17.234375 
Q 13.53125 14.546875 8.9375 0 
L 1.703125 0 
L 10.75 31.640625 
L 11.921875 35.75 
Q 12.25 36.671875 12.25 37.109375 
Q 12.25 38.1875 11.265625 39.03125 
Q 10.296875 39.890625 8.796875 39.890625 
Q 8.15625 39.890625 5.28125 39.3125 
L 4.828125 41.109375 
z
" id="TimesNewRomanPS-ItalicMT-6d"/>
      <path d="M 28.859375 69.4375 
L 19.234375 35.6875 
Q 23.921875 40.578125 27.40625 42.375 
Q 30.90625 44.1875 34.71875 44.1875 
Q 40.09375 44.1875 43.5 40.625 
Q 46.921875 37.0625 46.921875 30.953125 
Q 46.921875 23.09375 42.421875 15.296875 
Q 37.9375 7.515625 31.140625 3.171875 
Q 24.359375 -1.171875 17.78125 -1.171875 
Q 10.40625 -1.171875 2.640625 4.34375 
L 17.484375 55.46875 
Q 19.1875 61.375 19.1875 62.40625 
Q 19.1875 63.671875 18.40625 64.3125 
Q 17.28125 65.1875 15.09375 65.1875 
Q 14.0625 65.1875 11.96875 64.84375 
L 11.96875 66.703125 
z
M 9.96875 3.8125 
Q 14.84375 1.125 18.5625 1.125 
Q 22.859375 1.125 27.46875 4.265625 
Q 32.078125 7.421875 35.46875 14.890625 
Q 38.875 22.359375 38.875 29.984375 
Q 38.875 34.46875 36.640625 37 
Q 34.421875 39.546875 31.390625 39.546875 
Q 26.859375 39.546875 22.515625 35.90625 
Q 18.171875 32.28125 16.3125 25.78125 
z
" id="TimesNewRomanPS-ItalicMT-62"/>
      <path d="M 11.921875 18.40625 
Q 11.578125 15.96875 11.578125 14.359375 
Q 11.578125 10.015625 14.640625 6.953125 
Q 17.71875 3.90625 22.125 3.90625 
Q 25.640625 3.90625 28.875 5.34375 
Q 32.125 6.78125 38.53125 11.71875 
L 39.546875 10.296875 
Q 27.984375 -1.171875 17.484375 -1.171875 
Q 10.359375 -1.171875 6.734375 3.3125 
Q 3.125 7.8125 3.125 13.234375 
Q 3.125 20.515625 7.609375 28.125 
Q 12.109375 35.75 18.890625 39.96875 
Q 25.6875 44.1875 32.859375 44.1875 
Q 38.03125 44.1875 40.515625 42.078125 
Q 43.015625 39.984375 43.015625 37.109375 
Q 43.015625 33.0625 39.796875 29.34375 
Q 35.546875 24.515625 27.296875 21.53125 
Q 21.828125 19.53125 11.921875 18.40625 
z
M 12.25 20.796875 
Q 19.484375 21.625 24.03125 23.640625 
Q 30.03125 26.3125 33.03125 30.046875 
Q 36.03125 33.796875 36.03125 37.15625 
Q 36.03125 39.203125 34.734375 40.46875 
Q 33.453125 41.75 31.0625 41.75 
Q 26.078125 41.75 20.484375 36.453125 
Q 14.890625 31.15625 12.25 20.796875 
z
" id="TimesNewRomanPS-ItalicMT-65"/>
      <path d="M 5.21875 41.453125 
L 22.078125 44.1875 
L 15.046875 20.453125 
Q 23.578125 35.0625 30.5625 40.875 
Q 34.515625 44.1875 37.015625 44.1875 
Q 38.625 44.1875 39.546875 43.234375 
Q 40.484375 42.28125 40.484375 40.484375 
Q 40.484375 37.25 38.8125 34.328125 
Q 37.640625 32.125 35.453125 32.125 
Q 34.328125 32.125 33.515625 32.859375 
Q 32.71875 33.59375 32.515625 35.109375 
Q 32.421875 36.03125 32.078125 36.328125 
Q 31.6875 36.71875 31.15625 36.71875 
Q 30.328125 36.71875 29.59375 36.328125 
Q 28.328125 35.640625 25.734375 32.515625 
Q 21.6875 27.734375 16.9375 20.125 
Q 14.890625 16.890625 13.421875 12.84375 
Q 11.375 7.28125 11.078125 6.15625 
L 9.515625 0 
L 2.046875 0 
L 11.078125 30.328125 
Q 12.640625 35.59375 12.640625 37.84375 
Q 12.640625 38.71875 11.921875 39.3125 
Q 10.9375 40.09375 9.328125 40.09375 
Q 8.296875 40.09375 5.5625 39.65625 
z
" id="TimesNewRomanPS-ItalicMT-72"/>
      <path id="TimesNewRomanPS-ItalicMT-20"/>
      <path d="M 46.234375 28.90625 
Q 46.234375 21.578125 42.359375 14.40625 
Q 38.484375 7.234375 31.546875 3.03125 
Q 24.609375 -1.171875 18.0625 -1.171875 
Q 11.375 -1.171875 7.15625 3.09375 
Q 2.9375 7.375 2.9375 14.15625 
Q 2.9375 21.34375 7.0625 28.5625 
Q 11.1875 35.796875 18.09375 39.984375 
Q 25 44.1875 31.453125 44.1875 
Q 37.890625 44.1875 42.0625 39.9375 
Q 46.234375 35.6875 46.234375 28.90625 
z
M 38.140625 32.28125 
Q 38.140625 36.8125 35.90625 39.234375 
Q 33.6875 41.65625 30.171875 41.65625 
Q 23 41.65625 16.96875 31.375 
Q 10.9375 21.09375 10.9375 10.9375 
Q 10.9375 6.296875 13.28125 3.78125 
Q 15.625 1.265625 19.1875 1.265625 
Q 26.078125 1.265625 32.109375 11.5 
Q 38.140625 21.734375 38.140625 32.28125 
z
" id="TimesNewRomanPS-ItalicMT-6f"/>
      <path d="M 29.640625 43.015625 
L 28.765625 39.796875 
L 21.625 39.796875 
L 16.265625 18.453125 
Q 12.703125 4.34375 9.078125 -3.375 
Q 3.953125 -14.265625 -1.953125 -18.40625 
Q -6.453125 -21.578125 -10.9375 -21.578125 
Q -13.875 -21.578125 -15.921875 -19.828125 
Q -17.4375 -18.609375 -17.4375 -16.65625 
Q -17.4375 -15.09375 -16.1875 -13.9375 
Q -14.9375 -12.796875 -13.140625 -12.796875 
Q -11.8125 -12.796875 -10.90625 -13.625 
Q -10.015625 -14.453125 -10.015625 -15.53125 
Q -10.015625 -16.609375 -11.03125 -17.53125 
Q -11.8125 -18.21875 -11.8125 -18.5625 
Q -11.8125 -19 -11.46875 -19.234375 
Q -11.03125 -19.578125 -10.109375 -19.578125 
Q -8.015625 -19.578125 -5.6875 -18.25 
Q -3.375 -16.9375 -1.5625 -14.328125 
Q 0.25 -11.71875 1.859375 -6.78125 
Q 2.546875 -4.734375 5.515625 6.734375 
L 14.015625 39.796875 
L 5.515625 39.796875 
L 6.203125 43.015625 
Q 10.25 43.015625 11.859375 43.578125 
Q 13.484375 44.140625 14.8125 45.71875 
Q 16.15625 47.3125 18.3125 51.65625 
Q 21.1875 57.515625 23.828125 60.75 
Q 27.4375 65.09375 31.421875 67.265625 
Q 35.40625 69.4375 38.921875 69.4375 
Q 42.625 69.4375 44.875 67.546875 
Q 47.125 65.671875 47.125 63.484375 
Q 47.125 61.765625 46 60.59375 
Q 44.875 59.421875 43.109375 59.421875 
Q 41.609375 59.421875 40.65625 60.296875 
Q 39.703125 61.1875 39.703125 62.40625 
Q 39.703125 63.1875 40.328125 64.328125 
Q 40.96875 65.484375 40.96875 65.875 
Q 40.96875 66.546875 40.53125 66.890625 
Q 39.890625 67.390625 38.671875 67.390625 
Q 35.59375 67.390625 33.15625 65.4375 
Q 29.890625 62.84375 27.296875 57.328125 
Q 25.984375 54.4375 22.46875 43.015625 
z
" id="TimesNewRomanPS-ItalicMT-66"/>
      <path d="M 25.984375 56.296875 
L 22.171875 43.015625 
L 29.828125 43.015625 
L 29 39.9375 
L 21.390625 39.9375 
L 12.984375 11.140625 
Q 11.625 6.5 11.625 5.125 
Q 11.625 4.296875 12.015625 3.859375 
Q 12.40625 3.421875 12.9375 3.421875 
Q 14.15625 3.421875 16.15625 5.125 
Q 17.328125 6.109375 21.390625 11.140625 
L 23 9.90625 
Q 18.5 3.375 14.5 0.6875 
Q 11.765625 -1.171875 8.984375 -1.171875 
Q 6.84375 -1.171875 5.46875 0.171875 
Q 4.109375 1.515625 4.109375 3.609375 
Q 4.109375 6.25 5.671875 11.671875 
L 13.8125 39.9375 
L 6.453125 39.9375 
L 6.9375 41.84375 
Q 12.3125 43.3125 15.875 46.21875 
Q 19.4375 49.125 23.828125 56.296875 
z
" id="TimesNewRomanPS-ItalicMT-74"/>
      <path d="M 36.28125 44.1875 
L 33.296875 29.203125 
L 31.5 29.203125 
Q 31.25 35.75 28.703125 38.71875 
Q 26.171875 41.703125 22.40625 41.703125 
Q 19.390625 41.703125 17.609375 40.03125 
Q 15.828125 38.375 15.828125 36.03125 
Q 15.828125 34.421875 16.53125 32.953125 
Q 17.234375 31.5 19.625 28.859375 
Q 25.984375 21.921875 27.828125 18.40625 
Q 29.6875 14.890625 29.6875 11.765625 
Q 29.6875 6.6875 25.453125 2.75 
Q 21.234375 -1.171875 14.796875 -1.171875 
Q 11.28125 -1.171875 6.6875 0.484375 
Q 5.078125 1.078125 4.203125 1.078125 
Q 2 1.078125 0.875 -1.171875 
L -0.921875 -1.171875 
L 2.046875 14.65625 
L 3.859375 14.65625 
Q 4.15625 7.234375 6.9375 4.15625 
Q 9.71875 1.078125 14.546875 1.078125 
Q 18.265625 1.078125 20.4375 3.140625 
Q 22.609375 5.21875 22.609375 8.25 
Q 22.609375 10.203125 21.828125 11.859375 
Q 20.453125 14.796875 16.078125 19.96875 
Q 11.71875 25.140625 10.46875 27.734375 
Q 9.234375 30.328125 9.234375 32.90625 
Q 9.234375 37.640625 12.671875 40.90625 
Q 16.109375 44.1875 21.53125 44.1875 
Q 23.09375 44.1875 24.359375 43.953125 
Q 25.046875 43.796875 27.5625 42.84375 
Q 30.078125 41.890625 30.90625 41.890625 
Q 33.015625 41.890625 34.421875 44.1875 
z
" id="TimesNewRomanPS-ItalicMT-73"/>
     </defs>
     <g transform="translate(200.826562 330.576912)scale(0.12 -0.12)">
      <use xlink:href="#TimesNewRomanPS-ItalicMT-4e"/>
      <use x="66.699219" xlink:href="#TimesNewRomanPS-ItalicMT-75"/>
      <use x="116.699219" xlink:href="#TimesNewRomanPS-ItalicMT-6d"/>
      <use x="188.916016" xlink:href="#TimesNewRomanPS-ItalicMT-62"/>
      <use x="238.916016" xlink:href="#TimesNewRomanPS-ItalicMT-65"/>
      <use x="283.300781" xlink:href="#TimesNewRomanPS-ItalicMT-72"/>
      <use x="322.216797" xlink:href="#TimesNewRomanPS-ItalicMT-20"/>
      <use x="347.216797" xlink:href="#TimesNewRomanPS-ItalicMT-6f"/>
      <use x="397.216797" xlink:href="#TimesNewRomanPS-ItalicMT-66"/>
      <use x="425" xlink:href="#TimesNewRomanPS-ItalicMT-20"/>
      <use x="450" xlink:href="#TimesNewRomanPS-ItalicMT-74"/>
      <use x="477.783203" xlink:href="#TimesNewRomanPS-ItalicMT-65"/>
      <use x="522.167969" xlink:href="#TimesNewRomanPS-ItalicMT-73"/>
      <use x="561.083984" xlink:href="#TimesNewRomanPS-ItalicMT-74"/>
     </g>
    </g>
   </g>
   <g id="matplotlib.axis_2">
    <g id="ytick_1">
     <g id="line2d_7">
      <defs>
       <path d="M 0 0 
L 3.5 0 
" id="me584fa5fa4" style="stroke:#000000;stroke-width:0.8;"/>
      </defs>
      <g>
       <use style="stroke:#000000;stroke-width:0.8;" x="57.6" xlink:href="#me584fa5fa4" y="304.885479"/>
      </g>
     </g>
     <g id="text_8">
      <!-- 0.015 -->
      <defs>
       <path d="M 12.5 9.46875 
Q 14.796875 9.46875 16.359375 7.875 
Q 17.921875 6.296875 17.921875 4.046875 
Q 17.921875 1.8125 16.328125 0.21875 
Q 14.75 -1.375 12.5 -1.375 
Q 10.25 -1.375 8.65625 0.21875 
Q 7.078125 1.8125 7.078125 4.046875 
Q 7.078125 6.34375 8.65625 7.90625 
Q 10.25 9.46875 12.5 9.46875 
z
" id="TimesNewRomanPSMT-2e"/>
       <path d="M 43.40625 66.21875 
L 39.59375 57.90625 
L 19.671875 57.90625 
L 15.328125 49.03125 
Q 28.265625 47.125 35.84375 39.40625 
Q 42.328125 32.765625 42.328125 23.78125 
Q 42.328125 18.5625 40.203125 14.109375 
Q 38.09375 9.671875 34.859375 6.546875 
Q 31.640625 3.421875 27.6875 1.515625 
Q 22.078125 -1.171875 16.15625 -1.171875 
Q 10.203125 -1.171875 7.484375 0.84375 
Q 4.78125 2.875 4.78125 5.328125 
Q 4.78125 6.6875 5.90625 7.734375 
Q 7.03125 8.796875 8.734375 8.796875 
Q 10.015625 8.796875 10.96875 8.40625 
Q 11.921875 8.015625 14.203125 6.390625 
Q 17.875 3.859375 21.625 3.859375 
Q 27.34375 3.859375 31.65625 8.171875 
Q 35.984375 12.5 35.984375 18.703125 
Q 35.984375 24.703125 32.125 29.90625 
Q 28.265625 35.109375 21.484375 37.9375 
Q 16.15625 40.140625 6.984375 40.484375 
L 19.671875 66.21875 
z
" id="TimesNewRomanPSMT-35"/>
      </defs>
      <g transform="translate(31.6 308.357354)scale(0.1 -0.1)">
       <use xlink:href="#TimesNewRomanPSMT-30"/>
       <use x="50" xlink:href="#TimesNewRomanPSMT-2e"/>
       <use x="75" xlink:href="#TimesNewRomanPSMT-30"/>
       <use x="125" xlink:href="#TimesNewRomanPSMT-31"/>
       <use x="175" xlink:href="#TimesNewRomanPSMT-35"/>
      </g>
     </g>
    </g>
    <g id="ytick_2">
     <g id="line2d_8">
      <g>
       <use style="stroke:#000000;stroke-width:0.8;" x="57.6" xlink:href="#me584fa5fa4" y="261.497155"/>
      </g>
     </g>
     <g id="text_9">
      <!-- 0.020 -->
      <g transform="translate(31.6 264.96903)scale(0.1 -0.1)">
       <use xlink:href="#TimesNewRomanPSMT-30"/>
       <use x="50" xlink:href="#TimesNewRomanPSMT-2e"/>
       <use x="75" xlink:href="#TimesNewRomanPSMT-30"/>
       <use x="125" xlink:href="#TimesNewRomanPSMT-32"/>
       <use x="175" xlink:href="#TimesNewRomanPSMT-30"/>
      </g>
     </g>
    </g>
    <g id="ytick_3">
     <g id="line2d_9">
      <g>
       <use style="stroke:#000000;stroke-width:0.8;" x="57.6" xlink:href="#me584fa5fa4" y="218.108831"/>
      </g>
     </g>
     <g id="text_10">
      <!-- 0.025 -->
      <g transform="translate(31.6 221.580706)scale(0.1 -0.1)">
       <use xlink:href="#TimesNewRomanPSMT-30"/>
       <use x="50" xlink:href="#TimesNewRomanPSMT-2e"/>
       <use x="75" xlink:href="#TimesNewRomanPSMT-30"/>
       <use x="125" xlink:href="#TimesNewRomanPSMT-32"/>
       <use x="175" xlink:href="#TimesNewRomanPSMT-35"/>
      </g>
     </g>
    </g>
    <g id="ytick_4">
     <g id="line2d_10">
      <g>
       <use style="stroke:#000000;stroke-width:0.8;" x="57.6" xlink:href="#me584fa5fa4" y="174.720507"/>
      </g>
     </g>
     <g id="text_11">
      <!-- 0.030 -->
      <defs>
       <path d="M 5.078125 53.609375 
Q 7.90625 60.296875 12.21875 63.9375 
Q 16.546875 67.578125 23 67.578125 
Q 30.953125 67.578125 35.203125 62.40625 
Q 38.421875 58.546875 38.421875 54.15625 
Q 38.421875 46.921875 29.34375 39.203125 
Q 35.453125 36.8125 38.578125 32.375 
Q 41.703125 27.9375 41.703125 21.921875 
Q 41.703125 13.328125 36.234375 7.03125 
Q 29.109375 -1.171875 15.578125 -1.171875 
Q 8.890625 -1.171875 6.46875 0.484375 
Q 4.046875 2.15625 4.046875 4.046875 
Q 4.046875 5.46875 5.1875 6.546875 
Q 6.34375 7.625 7.953125 7.625 
Q 9.1875 7.625 10.453125 7.234375 
Q 11.28125 6.984375 14.203125 5.4375 
Q 17.140625 3.90625 18.265625 3.609375 
Q 20.0625 3.078125 22.125 3.078125 
Q 27.09375 3.078125 30.78125 6.9375 
Q 34.46875 10.796875 34.46875 16.0625 
Q 34.46875 19.921875 32.765625 23.578125 
Q 31.5 26.3125 29.984375 27.734375 
Q 27.875 29.6875 24.21875 31.265625 
Q 20.5625 32.859375 16.75 32.859375 
L 15.1875 32.859375 
L 15.1875 34.328125 
Q 19.046875 34.8125 22.921875 37.109375 
Q 26.8125 39.40625 28.5625 42.625 
Q 30.328125 45.84375 30.328125 49.703125 
Q 30.328125 54.734375 27.171875 57.828125 
Q 24.03125 60.9375 19.34375 60.9375 
Q 11.765625 60.9375 6.6875 52.828125 
z
" id="TimesNewRomanPSMT-33"/>
      </defs>
      <g transform="translate(31.6 178.192382)scale(0.1 -0.1)">
       <use xlink:href="#TimesNewRomanPSMT-30"/>
       <use x="50" xlink:href="#TimesNewRomanPSMT-2e"/>
       <use x="75" xlink:href="#TimesNewRomanPSMT-30"/>
       <use x="125" xlink:href="#TimesNewRomanPSMT-33"/>
       <use x="175" xlink:href="#TimesNewRomanPSMT-30"/>
      </g>
     </g>
    </g>
    <g id="ytick_5">
     <g id="line2d_11">
      <g>
       <use style="stroke:#000000;stroke-width:0.8;" x="57.6" xlink:href="#me584fa5fa4" y="131.332183"/>
      </g>
     </g>
     <g id="text_12">
      <!-- 0.035 -->
      <g transform="translate(31.6 134.804058)scale(0.1 -0.1)">
       <use xlink:href="#TimesNewRomanPSMT-30"/>
       <use x="50" xlink:href="#TimesNewRomanPSMT-2e"/>
       <use x="75" xlink:href="#TimesNewRomanPSMT-30"/>
       <use x="125" xlink:href="#TimesNewRomanPSMT-33"/>
       <use x="175" xlink:href="#TimesNewRomanPSMT-35"/>
      </g>
     </g>
    </g>
    <g id="ytick_6">
     <g id="line2d_12">
      <g>
       <use style="stroke:#000000;stroke-width:0.8;" x="57.6" xlink:href="#me584fa5fa4" y="87.943859"/>
      </g>
     </g>
     <g id="text_13">
      <!-- 0.040 -->
      <g transform="translate(31.6 91.415734)scale(0.1 -0.1)">
       <use xlink:href="#TimesNewRomanPSMT-30"/>
       <use x="50" xlink:href="#TimesNewRomanPSMT-2e"/>
       <use x="75" xlink:href="#TimesNewRomanPSMT-30"/>
       <use x="125" xlink:href="#TimesNewRomanPSMT-34"/>
       <use x="175" xlink:href="#TimesNewRomanPSMT-30"/>
      </g>
     </g>
    </g>
    <g id="ytick_7">
     <g id="line2d_13">
      <g>
       <use style="stroke:#000000;stroke-width:0.8;" x="57.6" xlink:href="#me584fa5fa4" y="44.555535"/>
      </g>
     </g>
     <g id="text_14">
      <!-- 0.045 -->
      <g transform="translate(31.6 48.02741)scale(0.1 -0.1)">
       <use xlink:href="#TimesNewRomanPSMT-30"/>
       <use x="50" xlink:href="#TimesNewRomanPSMT-2e"/>
       <use x="75" xlink:href="#TimesNewRomanPSMT-30"/>
       <use x="125" xlink:href="#TimesNewRomanPSMT-34"/>
       <use x="175" xlink:href="#TimesNewRomanPSMT-35"/>
      </g>
     </g>
    </g>
   </g>
   <g id="line2d_14">
    <path clip-path="url(#p6ed60e9d5c)" d="M 73.832727 53.2332 
L 103.346777 153.724514 
L 132.860826 268.172513 
L 162.374876 275.365152 
L 191.888926 292.039802 
L 221.402975 292.985162 
L 250.917025 293.6412 
L 280.431074 293.584222 
L 309.945124 293.565269 
L 339.459174 293.454769 
L 368.973223 293.338793 
L 398.487273 293.42557 
" style="fill:none;stroke:#0000ff;stroke-dasharray:3.7,1.6;stroke-dashoffset:0;"/>
    <defs>
     <path d="M -1.4 1.4 
L 1.4 1.4 
L 1.4 -1.4 
L -1.4 -1.4 
z
" id="m71e52e98e9" style="stroke:#0000ff;stroke-linejoin:miter;"/>
    </defs>
    <g clip-path="url(#p6ed60e9d5c)">
     <use style="fill:#0000ff;stroke:#0000ff;stroke-linejoin:miter;" x="73.832727" xlink:href="#m71e52e98e9" y="53.2332"/>
     <use style="fill:#0000ff;stroke:#0000ff;stroke-linejoin:miter;" x="103.346777" xlink:href="#m71e52e98e9" y="153.724514"/>
     <use style="fill:#0000ff;stroke:#0000ff;stroke-linejoin:miter;" x="132.860826" xlink:href="#m71e52e98e9" y="268.172513"/>
     <use style="fill:#0000ff;stroke:#0000ff;stroke-linejoin:miter;" x="162.374876" xlink:href="#m71e52e98e9" y="275.365152"/>
     <use style="fill:#0000ff;stroke:#0000ff;stroke-linejoin:miter;" x="191.888926" xlink:href="#m71e52e98e9" y="292.039802"/>
     <use style="fill:#0000ff;stroke:#0000ff;stroke-linejoin:miter;" x="221.402975" xlink:href="#m71e52e98e9" y="292.985162"/>
     <use style="fill:#0000ff;stroke:#0000ff;stroke-linejoin:miter;" x="250.917025" xlink:href="#m71e52e98e9" y="293.6412"/>
     <use style="fill:#0000ff;stroke:#0000ff;stroke-linejoin:miter;" x="280.431074" xlink:href="#m71e52e98e9" y="293.584222"/>
     <use style="fill:#0000ff;stroke:#0000ff;stroke-linejoin:miter;" x="309.945124" xlink:href="#m71e52e98e9" y="293.565269"/>
     <use style="fill:#0000ff;stroke:#0000ff;stroke-linejoin:miter;" x="339.459174" xlink:href="#m71e52e98e9" y="293.454769"/>
     <use style="fill:#0000ff;stroke:#0000ff;stroke-linejoin:miter;" x="368.973223" xlink:href="#m71e52e98e9" y="293.338793"/>
     <use style="fill:#0000ff;stroke:#0000ff;stroke-linejoin:miter;" x="398.487273" xlink:href="#m71e52e98e9" y="293.42557"/>
    </g>
   </g>
   <g id="patch_3">
    <path d="M 57.6 305.6616 
L 57.6 41.2128 
" style="fill:none;stroke:#000000;stroke-linecap:square;stroke-linejoin:miter;stroke-width:0.8;"/>
   </g>
   <g id="patch_4">
    <path d="M 414.72 305.6616 
L 414.72 41.2128 
" style="fill:none;stroke:#000000;stroke-linecap:square;stroke-linejoin:miter;stroke-width:0.8;"/>
   </g>
   <g id="patch_5">
    <path d="M 57.6 305.6616 
L 414.72 305.6616 
" style="fill:none;stroke:#000000;stroke-linecap:square;stroke-linejoin:miter;stroke-width:0.8;"/>
   </g>
   <g id="patch_6">
    <path d="M 57.6 41.2128 
L 414.72 41.2128 
" style="fill:none;stroke:#000000;stroke-linecap:square;stroke-linejoin:miter;stroke-width:0.8;"/>
   </g>
   <g id="legend_1">
    <g id="patch_7">
     <path d="M 280.92 67.779675 
L 406.32 67.779675 
Q 408.72 67.779675 408.72 65.379675 
L 408.72 49.6128 
Q 408.72 47.2128 406.32 47.2128 
L 280.92 47.2128 
Q 278.52 47.2128 278.52 49.6128 
L 278.52 65.379675 
Q 278.52 67.779675 280.92 67.779675 
z
" style="fill:#ffffff;opacity:0.8;stroke:#cccccc;stroke-linejoin:miter;"/>
    </g>
    <g id="line2d_15">
     <path d="M 283.32 56.2128 
L 307.32 56.2128 
" style="fill:none;stroke:#0000ff;stroke-dasharray:3.7,1.6;stroke-dashoffset:0;"/>
    </g>
    <g id="line2d_16">
     <g>
      <use style="fill:#0000ff;stroke:#0000ff;stroke-linejoin:miter;" x="295.32" xlink:href="#m71e52e98e9" y="56.2128"/>
     </g>
    </g>
    <g id="text_15">
     <!-- The MSE of BRN -->
     <defs>
      <path d="M 57.859375 66.21875 
L 58.59375 50.6875 
L 56.734375 50.6875 
Q 56.203125 54.78125 55.28125 56.546875 
Q 53.765625 59.375 51.25 60.71875 
Q 48.734375 62.0625 44.625 62.0625 
L 35.296875 62.0625 
L 35.296875 11.46875 
Q 35.296875 5.375 36.625 3.859375 
Q 38.484375 1.8125 42.328125 1.8125 
L 44.625 1.8125 
L 44.625 0 
L 16.546875 0 
L 16.546875 1.8125 
L 18.890625 1.8125 
Q 23.09375 1.8125 24.859375 4.34375 
Q 25.921875 5.90625 25.921875 11.46875 
L 25.921875 62.0625 
L 17.96875 62.0625 
Q 13.328125 62.0625 11.375 61.375 
Q 8.84375 60.453125 7.03125 57.8125 
Q 5.21875 55.171875 4.890625 50.6875 
L 3.03125 50.6875 
L 3.8125 66.21875 
z
" id="TimesNewRomanPSMT-54"/>
      <path d="M 16.265625 69.4375 
L 16.265625 36.71875 
Q 21.6875 42.671875 24.859375 44.359375 
Q 28.03125 46.046875 31.203125 46.046875 
Q 35.015625 46.046875 37.75 43.9375 
Q 40.484375 41.84375 41.796875 37.359375 
Q 42.71875 34.234375 42.71875 25.921875 
L 42.71875 10.109375 
Q 42.71875 5.859375 43.40625 4.296875 
Q 43.890625 3.125 45.0625 2.4375 
Q 46.234375 1.765625 49.359375 1.765625 
L 49.359375 0 
L 27.390625 0 
L 27.390625 1.765625 
L 28.421875 1.765625 
Q 31.546875 1.765625 32.765625 2.703125 
Q 33.984375 3.65625 34.46875 5.515625 
Q 34.625 6.296875 34.625 10.109375 
L 34.625 25.921875 
Q 34.625 33.25 33.859375 35.546875 
Q 33.109375 37.84375 31.4375 38.984375 
Q 29.78125 40.140625 27.4375 40.140625 
Q 25.046875 40.140625 22.453125 38.859375 
Q 19.875 37.59375 16.265625 33.734375 
L 16.265625 10.109375 
Q 16.265625 5.515625 16.765625 4.390625 
Q 17.28125 3.265625 18.671875 2.515625 
Q 20.0625 1.765625 23.484375 1.765625 
L 23.484375 0 
L 1.3125 0 
L 1.3125 1.765625 
Q 4.296875 1.765625 6 2.6875 
Q 6.984375 3.171875 7.5625 4.53125 
Q 8.15625 5.90625 8.15625 10.109375 
L 8.15625 50.59375 
Q 8.15625 58.25 7.78125 60 
Q 7.421875 61.765625 6.65625 62.390625 
Q 5.90625 63.03125 4.640625 63.03125 
Q 3.609375 63.03125 1.3125 62.25 
L 0.640625 63.96875 
L 14.015625 69.4375 
z
" id="TimesNewRomanPSMT-68"/>
      <path d="M 10.640625 27.875 
Q 10.59375 17.921875 15.484375 12.25 
Q 20.359375 6.59375 26.953125 6.59375 
Q 31.34375 6.59375 34.59375 9 
Q 37.84375 11.421875 40.046875 17.28125 
L 41.546875 16.3125 
Q 40.53125 9.625 35.59375 4.125 
Q 30.671875 -1.375 23.25 -1.375 
Q 15.1875 -1.375 9.453125 4.90625 
Q 3.71875 11.1875 3.71875 21.78125 
Q 3.71875 33.25 9.59375 39.671875 
Q 15.484375 46.09375 24.359375 46.09375 
Q 31.890625 46.09375 36.71875 41.140625 
Q 41.546875 36.1875 41.546875 27.875 
z
M 10.640625 30.71875 
L 31.34375 30.71875 
Q 31.109375 35.015625 30.328125 36.765625 
Q 29.109375 39.5 26.6875 41.0625 
Q 24.265625 42.625 21.625 42.625 
Q 17.578125 42.625 14.375 39.46875 
Q 11.1875 36.328125 10.640625 30.71875 
z
" id="TimesNewRomanPSMT-65"/>
      <path id="TimesNewRomanPSMT-20"/>
      <path d="M 40.921875 0 
L 15.328125 55.71875 
L 15.328125 11.46875 
Q 15.328125 5.375 16.65625 3.859375 
Q 18.453125 1.8125 22.359375 1.8125 
L 24.703125 1.8125 
L 24.703125 0 
L 1.65625 0 
L 1.65625 1.8125 
L 4 1.8125 
Q 8.203125 1.8125 9.96875 4.34375 
Q 11.03125 5.90625 11.03125 11.46875 
L 11.03125 54.734375 
Q 11.03125 59.125 10.0625 61.078125 
Q 9.375 62.5 7.546875 63.453125 
Q 5.71875 64.40625 1.65625 64.40625 
L 1.65625 66.21875 
L 20.40625 66.21875 
L 44.4375 14.40625 
L 68.0625 66.21875 
L 86.8125 66.21875 
L 86.8125 64.40625 
L 84.515625 64.40625 
Q 80.28125 64.40625 78.515625 61.859375 
Q 77.4375 60.296875 77.4375 54.734375 
L 77.4375 11.46875 
Q 77.4375 5.375 78.8125 3.859375 
Q 80.609375 1.8125 84.515625 1.8125 
L 86.8125 1.8125 
L 86.8125 0 
L 58.6875 0 
L 58.6875 1.8125 
L 61.03125 1.8125 
Q 65.28125 1.8125 67 4.34375 
Q 68.0625 5.90625 68.0625 11.46875 
L 68.0625 55.71875 
L 42.53125 0 
z
" id="TimesNewRomanPSMT-4d"/>
      <path d="M 45.84375 67.71875 
L 45.84375 44.828125 
L 44.046875 44.828125 
Q 43.171875 51.421875 40.890625 55.328125 
Q 38.625 59.234375 34.421875 61.515625 
Q 30.21875 63.8125 25.734375 63.8125 
Q 20.65625 63.8125 17.328125 60.71875 
Q 14.015625 57.625 14.015625 53.65625 
Q 14.015625 50.640625 16.109375 48.140625 
Q 19.140625 44.484375 30.515625 38.375 
Q 39.796875 33.40625 43.1875 30.734375 
Q 46.578125 28.078125 48.40625 24.453125 
Q 50.25 20.84375 50.25 16.890625 
Q 50.25 9.375 44.40625 3.921875 
Q 38.578125 -1.515625 29.390625 -1.515625 
Q 26.515625 -1.515625 23.96875 -1.078125 
Q 22.46875 -0.828125 17.703125 0.703125 
Q 12.9375 2.25 11.671875 2.25 
Q 10.453125 2.25 9.734375 1.515625 
Q 9.03125 0.78125 8.6875 -1.515625 
L 6.890625 -1.515625 
L 6.890625 21.1875 
L 8.6875 21.1875 
Q 9.96875 14.0625 12.109375 10.515625 
Q 14.265625 6.984375 18.671875 4.640625 
Q 23.09375 2.296875 28.375 2.296875 
Q 34.46875 2.296875 38 5.515625 
Q 41.546875 8.734375 41.546875 13.140625 
Q 41.546875 15.578125 40.203125 18.0625 
Q 38.875 20.5625 36.03125 22.703125 
Q 34.125 24.171875 25.625 28.921875 
Q 17.140625 33.6875 13.546875 36.515625 
Q 9.96875 39.359375 8.109375 42.765625 
Q 6.25 46.1875 6.25 50.296875 
Q 6.25 57.421875 11.71875 62.5625 
Q 17.1875 67.71875 25.640625 67.71875 
Q 30.90625 67.71875 36.8125 65.140625 
Q 39.546875 63.921875 40.671875 63.921875 
Q 41.9375 63.921875 42.75 64.671875 
Q 43.5625 65.4375 44.046875 67.71875 
z
" id="TimesNewRomanPSMT-53"/>
      <path d="M 20.90625 62.59375 
L 20.90625 36.421875 
L 35.453125 36.421875 
Q 41.109375 36.421875 43.015625 38.140625 
Q 45.5625 40.375 45.84375 46.046875 
L 47.65625 46.046875 
L 47.65625 23 
L 45.84375 23 
Q 45.171875 27.828125 44.484375 29.203125 
Q 43.609375 30.90625 41.59375 31.875 
Q 39.59375 32.859375 35.453125 32.859375 
L 20.90625 32.859375 
L 20.90625 11.03125 
Q 20.90625 6.640625 21.296875 5.6875 
Q 21.6875 4.734375 22.65625 4.171875 
Q 23.640625 3.609375 26.375 3.609375 
L 37.59375 3.609375 
Q 43.21875 3.609375 45.75 4.390625 
Q 48.296875 5.171875 50.640625 7.46875 
Q 53.65625 10.5 56.84375 16.609375 
L 58.796875 16.609375 
L 53.078125 0 
L 2.046875 0 
L 2.046875 1.8125 
L 4.390625 1.8125 
Q 6.734375 1.8125 8.84375 2.9375 
Q 10.40625 3.71875 10.96875 5.28125 
Q 11.53125 6.84375 11.53125 11.671875 
L 11.53125 54.6875 
Q 11.53125 60.984375 10.25 62.453125 
Q 8.5 64.40625 4.390625 64.40625 
L 2.046875 64.40625 
L 2.046875 66.21875 
L 53.078125 66.21875 
L 53.8125 51.703125 
L 51.90625 51.703125 
Q 50.875 56.9375 49.625 58.890625 
Q 48.390625 60.84375 45.953125 61.859375 
Q 44 62.59375 39.0625 62.59375 
z
" id="TimesNewRomanPSMT-45"/>
      <path d="M 25 46.046875 
Q 35.15625 46.046875 41.3125 38.328125 
Q 46.53125 31.734375 46.53125 23.1875 
Q 46.53125 17.1875 43.640625 11.03125 
Q 40.765625 4.890625 35.71875 1.75 
Q 30.671875 -1.375 24.46875 -1.375 
Q 14.359375 -1.375 8.40625 6.6875 
Q 3.375 13.484375 3.375 21.921875 
Q 3.375 28.078125 6.421875 34.15625 
Q 9.46875 40.234375 14.453125 43.140625 
Q 19.4375 46.046875 25 46.046875 
z
M 23.484375 42.875 
Q 20.90625 42.875 18.28125 41.328125 
Q 15.671875 39.796875 14.0625 35.9375 
Q 12.453125 32.078125 12.453125 26.03125 
Q 12.453125 16.265625 16.328125 9.171875 
Q 20.21875 2.09375 26.5625 2.09375 
Q 31.296875 2.09375 34.375 6 
Q 37.453125 9.90625 37.453125 19.4375 
Q 37.453125 31.34375 32.328125 38.1875 
Q 28.859375 42.875 23.484375 42.875 
z
" id="TimesNewRomanPSMT-6f"/>
      <path d="M 20.609375 41.21875 
L 20.609375 11.8125 
Q 20.609375 5.5625 21.96875 3.90625 
Q 23.78125 1.765625 26.8125 1.765625 
L 30.859375 1.765625 
L 30.859375 0 
L 4.15625 0 
L 4.15625 1.765625 
L 6.15625 1.765625 
Q 8.109375 1.765625 9.71875 2.734375 
Q 11.328125 3.71875 11.9375 5.375 
Q 12.546875 7.03125 12.546875 11.8125 
L 12.546875 41.21875 
L 3.859375 41.21875 
L 3.859375 44.734375 
L 12.546875 44.734375 
L 12.546875 47.65625 
Q 12.546875 54.34375 14.6875 58.984375 
Q 16.84375 63.625 21.265625 66.484375 
Q 25.6875 69.34375 31.203125 69.34375 
Q 36.328125 69.34375 40.625 66.015625 
Q 43.453125 63.8125 43.453125 61.078125 
Q 43.453125 59.625 42.1875 58.328125 
Q 40.921875 57.03125 39.453125 57.03125 
Q 38.328125 57.03125 37.078125 57.828125 
Q 35.84375 58.640625 34.03125 61.296875 
Q 32.234375 63.96875 30.71875 64.890625 
Q 29.203125 65.828125 27.34375 65.828125 
Q 25.09375 65.828125 23.53125 64.625 
Q 21.96875 63.421875 21.28125 60.90625 
Q 20.609375 58.40625 20.609375 47.953125 
L 20.609375 44.734375 
L 32.125 44.734375 
L 32.125 41.21875 
z
" id="TimesNewRomanPSMT-66"/>
      <path d="M 46.1875 33.796875 
Q 53.078125 32.328125 56.5 29.109375 
Q 61.234375 24.609375 61.234375 18.109375 
Q 61.234375 13.1875 58.109375 8.671875 
Q 54.984375 4.15625 49.53125 2.078125 
Q 44.09375 0 32.90625 0 
L 1.65625 0 
L 1.65625 1.8125 
L 4.15625 1.8125 
Q 8.296875 1.8125 10.109375 4.4375 
Q 11.234375 6.15625 11.234375 11.71875 
L 11.234375 54.5 
Q 11.234375 60.640625 9.8125 62.25 
Q 7.90625 64.40625 4.15625 64.40625 
L 1.65625 64.40625 
L 1.65625 66.21875 
L 30.28125 66.21875 
Q 38.28125 66.21875 43.109375 65.046875 
Q 50.4375 63.28125 54.296875 58.8125 
Q 58.15625 54.34375 58.15625 48.53125 
Q 58.15625 43.5625 55.125 39.625 
Q 52.09375 35.6875 46.1875 33.796875 
z
M 20.609375 36.421875 
Q 22.40625 36.078125 24.71875 35.90625 
Q 27.046875 35.75 29.828125 35.75 
Q 36.96875 35.75 40.546875 37.28125 
Q 44.140625 38.8125 46.046875 41.984375 
Q 47.953125 45.171875 47.953125 48.921875 
Q 47.953125 54.734375 43.21875 58.828125 
Q 38.484375 62.9375 29.390625 62.9375 
Q 24.515625 62.9375 20.609375 61.859375 
z
M 20.609375 4.78125 
Q 26.265625 3.46875 31.78125 3.46875 
Q 40.625 3.46875 45.265625 7.4375 
Q 49.90625 11.421875 49.90625 17.28125 
Q 49.90625 21.140625 47.796875 24.703125 
Q 45.703125 28.265625 40.96875 30.3125 
Q 36.234375 32.375 29.25 32.375 
Q 26.21875 32.375 24.0625 32.265625 
Q 21.921875 32.171875 20.609375 31.9375 
z
" id="TimesNewRomanPSMT-42"/>
      <path d="M 67.578125 0 
L 49.90625 0 
L 27.484375 30.953125 
Q 25 30.859375 23.4375 30.859375 
Q 22.796875 30.859375 22.0625 30.875 
Q 21.34375 30.90625 20.5625 30.953125 
L 20.5625 11.71875 
Q 20.5625 5.46875 21.921875 3.953125 
Q 23.78125 1.8125 27.484375 1.8125 
L 30.078125 1.8125 
L 30.078125 0 
L 1.703125 0 
L 1.703125 1.8125 
L 4.203125 1.8125 
Q 8.40625 1.8125 10.203125 4.546875 
Q 11.234375 6.0625 11.234375 11.71875 
L 11.234375 54.5 
Q 11.234375 60.75 9.859375 62.25 
Q 7.953125 64.40625 4.203125 64.40625 
L 1.703125 64.40625 
L 1.703125 66.21875 
L 25.828125 66.21875 
Q 36.375 66.21875 41.375 64.671875 
Q 46.390625 63.140625 49.875 59.015625 
Q 53.375 54.890625 53.375 49.171875 
Q 53.375 43.0625 49.390625 38.5625 
Q 45.40625 34.078125 37.0625 32.234375 
L 50.734375 13.234375 
Q 55.421875 6.6875 58.78125 4.53125 
Q 62.15625 2.390625 67.578125 1.8125 
z
M 20.5625 34.03125 
Q 21.484375 34.03125 22.171875 34 
Q 22.859375 33.984375 23.296875 33.984375 
Q 32.765625 33.984375 37.578125 38.078125 
Q 42.390625 42.1875 42.390625 48.53125 
Q 42.390625 54.734375 38.5 58.609375 
Q 34.625 62.5 28.21875 62.5 
Q 25.390625 62.5 20.5625 61.578125 
z
" id="TimesNewRomanPSMT-52"/>
      <path d="M -1.3125 66.21875 
L 16.65625 66.21875 
L 57.125 16.546875 
L 57.125 54.734375 
Q 57.125 60.84375 55.765625 62.359375 
Q 53.953125 64.40625 50.046875 64.40625 
L 47.75 64.40625 
L 47.75 66.21875 
L 70.796875 66.21875 
L 70.796875 64.40625 
L 68.453125 64.40625 
Q 64.265625 64.40625 62.5 61.859375 
Q 61.421875 60.296875 61.421875 54.734375 
L 61.421875 -1.078125 
L 59.671875 -1.078125 
L 16.015625 52.25 
L 16.015625 11.46875 
Q 16.015625 5.375 17.328125 3.859375 
Q 19.1875 1.8125 23.046875 1.8125 
L 25.390625 1.8125 
L 25.390625 0 
L 2.34375 0 
L 2.34375 1.8125 
L 4.640625 1.8125 
Q 8.890625 1.8125 10.640625 4.34375 
Q 11.71875 5.90625 11.71875 11.46875 
L 11.71875 57.515625 
Q 8.84375 60.890625 7.34375 61.953125 
Q 5.859375 63.03125 2.984375 63.96875 
Q 1.5625 64.40625 -1.3125 64.40625 
z
" id="TimesNewRomanPSMT-4e"/>
     </defs>
     <g transform="translate(316.92 60.4128)scale(0.12 -0.12)">
      <use xlink:href="#TimesNewRomanPSMT-54"/>
      <use x="61.083984" xlink:href="#TimesNewRomanPSMT-68"/>
      <use x="111.083984" xlink:href="#TimesNewRomanPSMT-65"/>
      <use x="155.46875" xlink:href="#TimesNewRomanPSMT-20"/>
      <use x="180.46875" xlink:href="#TimesNewRomanPSMT-4d"/>
      <use x="269.384766" xlink:href="#TimesNewRomanPSMT-53"/>
      <use x="325" xlink:href="#TimesNewRomanPSMT-45"/>
      <use x="386.083984" xlink:href="#TimesNewRomanPSMT-20"/>
      <use x="411.083984" xlink:href="#TimesNewRomanPSMT-6f"/>
      <use x="461.083984" xlink:href="#TimesNewRomanPSMT-66"/>
      <use x="494.384766" xlink:href="#TimesNewRomanPSMT-20"/>
      <use x="519.384766" xlink:href="#TimesNewRomanPSMT-42"/>
      <use x="586.083984" xlink:href="#TimesNewRomanPSMT-52"/>
      <use x="652.783203" xlink:href="#TimesNewRomanPSMT-4e"/>
     </g>
    </g>
   </g>
  </g>
  <g id="axes_2">
   <g id="matplotlib.axis_3">
    <g id="ytick_8">
     <g id="line2d_17">
      <defs>
       <path d="M 0 0 
L -3.5 0 
" id="m1c65e38443" style="stroke:#000000;stroke-width:0.8;"/>
      </defs>
      <g>
       <use style="stroke:#000000;stroke-width:0.8;" x="414.72" xlink:href="#m1c65e38443" y="265.098804"/>
      </g>
     </g>
     <g id="text_16">
      <!-- $\mathdefault{10^{-9}}$ -->
      <defs>
       <path d="M 54.4375 31.25 
L 1.8125 31.25 
L 1.8125 35.25 
L 54.4375 35.25 
z
" id="TimesNewRomanPSMT-2212"/>
       <path d="M 5.28125 -1.375 
L 5.28125 0.4375 
Q 11.625 0.53125 17.09375 3.390625 
Q 22.5625 6.25 27.65625 13.375 
Q 32.765625 20.515625 34.765625 29.046875 
Q 27.09375 24.125 20.90625 24.125 
Q 13.921875 24.125 8.9375 29.515625 
Q 3.953125 34.90625 3.953125 43.84375 
Q 3.953125 52.546875 8.9375 59.328125 
Q 14.9375 67.578125 24.609375 67.578125 
Q 32.765625 67.578125 38.578125 60.84375 
Q 45.703125 52.484375 45.703125 40.234375 
Q 45.703125 29.203125 40.28125 19.65625 
Q 34.859375 10.109375 25.203125 3.8125 
Q 17.328125 -1.375 8.0625 -1.375 
z
M 35.546875 32.671875 
Q 36.421875 39.015625 36.421875 42.828125 
Q 36.421875 47.5625 34.8125 53.046875 
Q 33.203125 58.546875 30.25 61.46875 
Q 27.296875 64.40625 23.53125 64.40625 
Q 19.1875 64.40625 15.90625 60.5 
Q 12.640625 56.59375 12.640625 48.875 
Q 12.640625 38.578125 17 32.765625 
Q 20.171875 28.5625 24.8125 28.5625 
Q 27.046875 28.5625 30.125 29.640625 
Q 33.203125 30.71875 35.546875 32.671875 
z
" id="TimesNewRomanPSMT-39"/>
      </defs>
      <g transform="translate(418.22 269.529273)scale(0.1 -0.1)">
       <use transform="translate(0 0.582813)" xlink:href="#TimesNewRomanPSMT-31"/>
       <use transform="translate(50 0.582813)" xlink:href="#TimesNewRomanPSMT-30"/>
       <use transform="translate(101.502813 60.695312)scale(0.7)" xlink:href="#TimesNewRomanPSMT-2212"/>
       <use transform="translate(140.980352 60.695312)scale(0.7)" xlink:href="#TimesNewRomanPSMT-39"/>
      </g>
     </g>
    </g>
    <g id="ytick_9">
     <g id="line2d_18">
      <g>
       <use style="stroke:#000000;stroke-width:0.8;" x="414.72" xlink:href="#m1c65e38443" y="219.578682"/>
      </g>
     </g>
     <g id="text_17">
      <!-- $\mathdefault{10^{-8}}$ -->
      <g transform="translate(418.22 224.009151)scale(0.1 -0.1)">
       <use transform="translate(0 0.582813)" xlink:href="#TimesNewRomanPSMT-31"/>
       <use transform="translate(50 0.582813)" xlink:href="#TimesNewRomanPSMT-30"/>
       <use transform="translate(101.502813 60.695312)scale(0.7)" xlink:href="#TimesNewRomanPSMT-2212"/>
       <use transform="translate(140.980352 60.695312)scale(0.7)" xlink:href="#TimesNewRomanPSMT-38"/>
      </g>
     </g>
    </g>
    <g id="ytick_10">
     <g id="line2d_19">
      <g>
       <use style="stroke:#000000;stroke-width:0.8;" x="414.72" xlink:href="#m1c65e38443" y="174.05856"/>
      </g>
     </g>
     <g id="text_18">
      <!-- $\mathdefault{10^{-7}}$ -->
      <defs>
       <path d="M 10.0625 66.21875 
L 45.5625 66.21875 
L 45.5625 64.359375 
L 23.484375 -1.375 
L 18.015625 -1.375 
L 37.796875 58.25 
L 19.578125 58.25 
Q 14.0625 58.25 11.71875 56.9375 
Q 7.625 54.6875 5.125 50 
L 3.71875 50.53125 
z
" id="TimesNewRomanPSMT-37"/>
      </defs>
      <g transform="translate(418.22 178.439029)scale(0.1 -0.1)">
       <use transform="translate(0 0.534375)" xlink:href="#TimesNewRomanPSMT-31"/>
       <use transform="translate(50 0.534375)" xlink:href="#TimesNewRomanPSMT-30"/>
       <use transform="translate(101.502813 60.646875)scale(0.7)" xlink:href="#TimesNewRomanPSMT-2212"/>
       <use transform="translate(140.980352 60.646875)scale(0.7)" xlink:href="#TimesNewRomanPSMT-37"/>
      </g>
     </g>
    </g>
    <g id="ytick_11">
     <g id="line2d_20">
      <g>
       <use style="stroke:#000000;stroke-width:0.8;" x="414.72" xlink:href="#m1c65e38443" y="128.538438"/>
      </g>
     </g>
     <g id="text_19">
      <!-- $\mathdefault{10^{-6}}$ -->
      <g transform="translate(418.22 132.968906)scale(0.1 -0.1)">
       <use transform="translate(0 0.582813)" xlink:href="#TimesNewRomanPSMT-31"/>
       <use transform="translate(50 0.582813)" xlink:href="#TimesNewRomanPSMT-30"/>
       <use transform="translate(101.502813 60.695312)scale(0.7)" xlink:href="#TimesNewRomanPSMT-2212"/>
       <use transform="translate(140.980352 60.695312)scale(0.7)" xlink:href="#TimesNewRomanPSMT-36"/>
      </g>
     </g>
    </g>
    <g id="ytick_12">
     <g id="line2d_21">
      <g>
       <use style="stroke:#000000;stroke-width:0.8;" x="414.72" xlink:href="#m1c65e38443" y="83.018315"/>
      </g>
     </g>
     <g id="text_20">
      <!-- $\mathdefault{10^{-5}}$ -->
      <g transform="translate(418.22 87.398784)scale(0.1 -0.1)">
       <use transform="translate(0 0.534375)" xlink:href="#TimesNewRomanPSMT-31"/>
       <use transform="translate(50 0.534375)" xlink:href="#TimesNewRomanPSMT-30"/>
       <use transform="translate(101.502813 60.646875)scale(0.7)" xlink:href="#TimesNewRomanPSMT-2212"/>
       <use transform="translate(140.980352 60.646875)scale(0.7)" xlink:href="#TimesNewRomanPSMT-35"/>
      </g>
     </g>
    </g>
    <g id="ytick_13">
     <g id="line2d_22">
      <defs>
       <path d="M 0 0 
L -2 0 
" id="m3b89e3adf7" style="stroke:#000000;stroke-width:0.6;"/>
      </defs>
      <g>
       <use style="stroke:#000000;stroke-width:0.6;" x="414.72" xlink:href="#m3b89e3adf7" y="296.916004"/>
      </g>
     </g>
    </g>
    <g id="ytick_14">
     <g id="line2d_23">
      <g>
       <use style="stroke:#000000;stroke-width:0.6;" x="414.72" xlink:href="#m3b89e3adf7" y="288.900309"/>
      </g>
     </g>
    </g>
    <g id="ytick_15">
     <g id="line2d_24">
      <g>
       <use style="stroke:#000000;stroke-width:0.6;" x="414.72" xlink:href="#m3b89e3adf7" y="283.213082"/>
      </g>
     </g>
    </g>
    <g id="ytick_16">
     <g id="line2d_25">
      <g>
       <use style="stroke:#000000;stroke-width:0.6;" x="414.72" xlink:href="#m3b89e3adf7" y="278.801727"/>
      </g>
     </g>
    </g>
    <g id="ytick_17">
     <g id="line2d_26">
      <g>
       <use style="stroke:#000000;stroke-width:0.6;" x="414.72" xlink:href="#m3b89e3adf7" y="275.197387"/>
      </g>
     </g>
    </g>
    <g id="ytick_18">
     <g id="line2d_27">
      <g>
       <use style="stroke:#000000;stroke-width:0.6;" x="414.72" xlink:href="#m3b89e3adf7" y="272.149961"/>
      </g>
     </g>
    </g>
    <g id="ytick_19">
     <g id="line2d_28">
      <g>
       <use style="stroke:#000000;stroke-width:0.6;" x="414.72" xlink:href="#m3b89e3adf7" y="269.51016"/>
      </g>
     </g>
    </g>
    <g id="ytick_20">
     <g id="line2d_29">
      <g>
       <use style="stroke:#000000;stroke-width:0.6;" x="414.72" xlink:href="#m3b89e3adf7" y="267.181691"/>
      </g>
     </g>
    </g>
    <g id="ytick_21">
     <g id="line2d_30">
      <g>
       <use style="stroke:#000000;stroke-width:0.6;" x="414.72" xlink:href="#m3b89e3adf7" y="251.395882"/>
      </g>
     </g>
    </g>
    <g id="ytick_22">
     <g id="line2d_31">
      <g>
       <use style="stroke:#000000;stroke-width:0.6;" x="414.72" xlink:href="#m3b89e3adf7" y="243.380187"/>
      </g>
     </g>
    </g>
    <g id="ytick_23">
     <g id="line2d_32">
      <g>
       <use style="stroke:#000000;stroke-width:0.6;" x="414.72" xlink:href="#m3b89e3adf7" y="237.69296"/>
      </g>
     </g>
    </g>
    <g id="ytick_24">
     <g id="line2d_33">
      <g>
       <use style="stroke:#000000;stroke-width:0.6;" x="414.72" xlink:href="#m3b89e3adf7" y="233.281604"/>
      </g>
     </g>
    </g>
    <g id="ytick_25">
     <g id="line2d_34">
      <g>
       <use style="stroke:#000000;stroke-width:0.6;" x="414.72" xlink:href="#m3b89e3adf7" y="229.677264"/>
      </g>
     </g>
    </g>
    <g id="ytick_26">
     <g id="line2d_35">
      <g>
       <use style="stroke:#000000;stroke-width:0.6;" x="414.72" xlink:href="#m3b89e3adf7" y="226.629838"/>
      </g>
     </g>
    </g>
    <g id="ytick_27">
     <g id="line2d_36">
      <g>
       <use style="stroke:#000000;stroke-width:0.6;" x="414.72" xlink:href="#m3b89e3adf7" y="223.990038"/>
      </g>
     </g>
    </g>
    <g id="ytick_28">
     <g id="line2d_37">
      <g>
       <use style="stroke:#000000;stroke-width:0.6;" x="414.72" xlink:href="#m3b89e3adf7" y="221.661569"/>
      </g>
     </g>
    </g>
    <g id="ytick_29">
     <g id="line2d_38">
      <g>
       <use style="stroke:#000000;stroke-width:0.6;" x="414.72" xlink:href="#m3b89e3adf7" y="205.87576"/>
      </g>
     </g>
    </g>
    <g id="ytick_30">
     <g id="line2d_39">
      <g>
       <use style="stroke:#000000;stroke-width:0.6;" x="414.72" xlink:href="#m3b89e3adf7" y="197.860064"/>
      </g>
     </g>
    </g>
    <g id="ytick_31">
     <g id="line2d_40">
      <g>
       <use style="stroke:#000000;stroke-width:0.6;" x="414.72" xlink:href="#m3b89e3adf7" y="192.172838"/>
      </g>
     </g>
    </g>
    <g id="ytick_32">
     <g id="line2d_41">
      <g>
       <use style="stroke:#000000;stroke-width:0.6;" x="414.72" xlink:href="#m3b89e3adf7" y="187.761482"/>
      </g>
     </g>
    </g>
    <g id="ytick_33">
     <g id="line2d_42">
      <g>
       <use style="stroke:#000000;stroke-width:0.6;" x="414.72" xlink:href="#m3b89e3adf7" y="184.157142"/>
      </g>
     </g>
    </g>
    <g id="ytick_34">
     <g id="line2d_43">
      <g>
       <use style="stroke:#000000;stroke-width:0.6;" x="414.72" xlink:href="#m3b89e3adf7" y="181.109716"/>
      </g>
     </g>
    </g>
    <g id="ytick_35">
     <g id="line2d_44">
      <g>
       <use style="stroke:#000000;stroke-width:0.6;" x="414.72" xlink:href="#m3b89e3adf7" y="178.469915"/>
      </g>
     </g>
    </g>
    <g id="ytick_36">
     <g id="line2d_45">
      <g>
       <use style="stroke:#000000;stroke-width:0.6;" x="414.72" xlink:href="#m3b89e3adf7" y="176.141446"/>
      </g>
     </g>
    </g>
    <g id="ytick_37">
     <g id="line2d_46">
      <g>
       <use style="stroke:#000000;stroke-width:0.6;" x="414.72" xlink:href="#m3b89e3adf7" y="160.355638"/>
      </g>
     </g>
    </g>
    <g id="ytick_38">
     <g id="line2d_47">
      <g>
       <use style="stroke:#000000;stroke-width:0.6;" x="414.72" xlink:href="#m3b89e3adf7" y="152.339942"/>
      </g>
     </g>
    </g>
    <g id="ytick_39">
     <g id="line2d_48">
      <g>
       <use style="stroke:#000000;stroke-width:0.6;" x="414.72" xlink:href="#m3b89e3adf7" y="146.652715"/>
      </g>
     </g>
    </g>
    <g id="ytick_40">
     <g id="line2d_49">
      <g>
       <use style="stroke:#000000;stroke-width:0.6;" x="414.72" xlink:href="#m3b89e3adf7" y="142.24136"/>
      </g>
     </g>
    </g>
    <g id="ytick_41">
     <g id="line2d_50">
      <g>
       <use style="stroke:#000000;stroke-width:0.6;" x="414.72" xlink:href="#m3b89e3adf7" y="138.63702"/>
      </g>
     </g>
    </g>
    <g id="ytick_42">
     <g id="line2d_51">
      <g>
       <use style="stroke:#000000;stroke-width:0.6;" x="414.72" xlink:href="#m3b89e3adf7" y="135.589594"/>
      </g>
     </g>
    </g>
    <g id="ytick_43">
     <g id="line2d_52">
      <g>
       <use style="stroke:#000000;stroke-width:0.6;" x="414.72" xlink:href="#m3b89e3adf7" y="132.949793"/>
      </g>
     </g>
    </g>
    <g id="ytick_44">
     <g id="line2d_53">
      <g>
       <use style="stroke:#000000;stroke-width:0.6;" x="414.72" xlink:href="#m3b89e3adf7" y="130.621324"/>
      </g>
     </g>
    </g>
    <g id="ytick_45">
     <g id="line2d_54">
      <g>
       <use style="stroke:#000000;stroke-width:0.6;" x="414.72" xlink:href="#m3b89e3adf7" y="114.835515"/>
      </g>
     </g>
    </g>
    <g id="ytick_46">
     <g id="line2d_55">
      <g>
       <use style="stroke:#000000;stroke-width:0.6;" x="414.72" xlink:href="#m3b89e3adf7" y="106.81982"/>
      </g>
     </g>
    </g>
    <g id="ytick_47">
     <g id="line2d_56">
      <g>
       <use style="stroke:#000000;stroke-width:0.6;" x="414.72" xlink:href="#m3b89e3adf7" y="101.132593"/>
      </g>
     </g>
    </g>
    <g id="ytick_48">
     <g id="line2d_57">
      <g>
       <use style="stroke:#000000;stroke-width:0.6;" x="414.72" xlink:href="#m3b89e3adf7" y="96.721237"/>
      </g>
     </g>
    </g>
    <g id="ytick_49">
     <g id="line2d_58">
      <g>
       <use style="stroke:#000000;stroke-width:0.6;" x="414.72" xlink:href="#m3b89e3adf7" y="93.116897"/>
      </g>
     </g>
    </g>
    <g id="ytick_50">
     <g id="line2d_59">
      <g>
       <use style="stroke:#000000;stroke-width:0.6;" x="414.72" xlink:href="#m3b89e3adf7" y="90.069471"/>
      </g>
     </g>
    </g>
    <g id="ytick_51">
     <g id="line2d_60">
      <g>
       <use style="stroke:#000000;stroke-width:0.6;" x="414.72" xlink:href="#m3b89e3adf7" y="87.429671"/>
      </g>
     </g>
    </g>
    <g id="ytick_52">
     <g id="line2d_61">
      <g>
       <use style="stroke:#000000;stroke-width:0.6;" x="414.72" xlink:href="#m3b89e3adf7" y="85.101202"/>
      </g>
     </g>
    </g>
    <g id="ytick_53">
     <g id="line2d_62">
      <g>
       <use style="stroke:#000000;stroke-width:0.6;" x="414.72" xlink:href="#m3b89e3adf7" y="69.315393"/>
      </g>
     </g>
    </g>
    <g id="ytick_54">
     <g id="line2d_63">
      <g>
       <use style="stroke:#000000;stroke-width:0.6;" x="414.72" xlink:href="#m3b89e3adf7" y="61.299697"/>
      </g>
     </g>
    </g>
    <g id="ytick_55">
     <g id="line2d_64">
      <g>
       <use style="stroke:#000000;stroke-width:0.6;" x="414.72" xlink:href="#m3b89e3adf7" y="55.612471"/>
      </g>
     </g>
    </g>
    <g id="ytick_56">
     <g id="line2d_65">
      <g>
       <use style="stroke:#000000;stroke-width:0.6;" x="414.72" xlink:href="#m3b89e3adf7" y="51.201115"/>
      </g>
     </g>
    </g>
    <g id="ytick_57">
     <g id="line2d_66">
      <g>
       <use style="stroke:#000000;stroke-width:0.6;" x="414.72" xlink:href="#m3b89e3adf7" y="47.596775"/>
      </g>
     </g>
    </g>
    <g id="ytick_58">
     <g id="line2d_67">
      <g>
       <use style="stroke:#000000;stroke-width:0.6;" x="414.72" xlink:href="#m3b89e3adf7" y="44.549349"/>
      </g>
     </g>
    </g>
    <g id="ytick_59">
     <g id="line2d_68">
      <g>
       <use style="stroke:#000000;stroke-width:0.6;" x="414.72" xlink:href="#m3b89e3adf7" y="41.909549"/>
      </g>
     </g>
    </g>
   </g>
   <g id="line2d_69">
    <path clip-path="url(#p6ed60e9d5c)" d="M 73.832727 53.2332 
L 103.346777 73.885999 
L 132.860826 160.57797 
L 162.374876 216.08899 
L 191.888926 259.348835 
L 221.402975 283.225319 
L 250.917025 290.485902 
L 280.431074 293.6412 
L 309.945124 288.473654 
L 339.459174 279.247419 
L 368.973223 272.684662 
L 398.487273 259.348835 
" style="fill:none;stroke:#ff0000;stroke-dasharray:3.7,1.6;stroke-dashoffset:0;"/>
    <defs>
     <path d="M -0 1.4 
L 1.4 -1.4 
L -1.4 -1.4 
z
" id="m48c11aea8f" style="stroke:#ff0000;stroke-linejoin:miter;"/>
    </defs>
    <g clip-path="url(#p6ed60e9d5c)">
     <use style="fill:#ff0000;stroke:#ff0000;stroke-linejoin:miter;" x="73.832727" xlink:href="#m48c11aea8f" y="53.2332"/>
     <use style="fill:#ff0000;stroke:#ff0000;stroke-linejoin:miter;" x="103.346777" xlink:href="#m48c11aea8f" y="73.885999"/>
     <use style="fill:#ff0000;stroke:#ff0000;stroke-linejoin:miter;" x="132.860826" xlink:href="#m48c11aea8f" y="160.57797"/>
     <use style="fill:#ff0000;stroke:#ff0000;stroke-linejoin:miter;" x="162.374876" xlink:href="#m48c11aea8f" y="216.08899"/>
     <use style="fill:#ff0000;stroke:#ff0000;stroke-linejoin:miter;" x="191.888926" xlink:href="#m48c11aea8f" y="259.348835"/>
     <use style="fill:#ff0000;stroke:#ff0000;stroke-linejoin:miter;" x="221.402975" xlink:href="#m48c11aea8f" y="283.225319"/>
     <use style="fill:#ff0000;stroke:#ff0000;stroke-linejoin:miter;" x="250.917025" xlink:href="#m48c11aea8f" y="290.485902"/>
     <use style="fill:#ff0000;stroke:#ff0000;stroke-linejoin:miter;" x="280.431074" xlink:href="#m48c11aea8f" y="293.6412"/>
     <use style="fill:#ff0000;stroke:#ff0000;stroke-linejoin:miter;" x="309.945124" xlink:href="#m48c11aea8f" y="288.473654"/>
     <use style="fill:#ff0000;stroke:#ff0000;stroke-linejoin:miter;" x="339.459174" xlink:href="#m48c11aea8f" y="279.247419"/>
     <use style="fill:#ff0000;stroke:#ff0000;stroke-linejoin:miter;" x="368.973223" xlink:href="#m48c11aea8f" y="272.684662"/>
     <use style="fill:#ff0000;stroke:#ff0000;stroke-linejoin:miter;" x="398.487273" xlink:href="#m48c11aea8f" y="259.348835"/>
    </g>
   </g>
   <g id="patch_8">
    <path d="M 57.6 305.6616 
L 57.6 41.2128 
" style="fill:none;stroke:#000000;stroke-linecap:square;stroke-linejoin:miter;stroke-width:0.8;"/>
   </g>
   <g id="patch_9">
    <path d="M 414.72 305.6616 
L 414.72 41.2128 
" style="fill:none;stroke:#000000;stroke-linecap:square;stroke-linejoin:miter;stroke-width:0.8;"/>
   </g>
   <g id="patch_10">
    <path d="M 57.6 305.6616 
L 414.72 305.6616 
" style="fill:none;stroke:#000000;stroke-linecap:square;stroke-linejoin:miter;stroke-width:0.8;"/>
   </g>
   <g id="patch_11">
    <path d="M 57.6 41.2128 
L 414.72 41.2128 
" style="fill:none;stroke:#000000;stroke-linecap:square;stroke-linejoin:miter;stroke-width:0.8;"/>
   </g>
   <g id="legend_2">
    <g id="patch_12">
     <path d="M 280.671375 88.935579 
L 397.392 88.935579 
Q 399.792 88.935579 399.792 86.535579 
L 399.792 70.768704 
Q 399.792 68.368704 397.392 68.368704 
L 280.671375 68.368704 
Q 278.271375 68.368704 278.271375 70.768704 
L 278.271375 86.535579 
Q 278.271375 88.935579 280.671375 88.935579 
z
" style="fill:#ffffff;opacity:0.8;stroke:#cccccc;stroke-linejoin:miter;"/>
    </g>
    <g id="line2d_70">
     <path d="M 283.071375 77.368704 
L 307.071375 77.368704 
" style="fill:none;stroke:#ff0000;stroke-dasharray:3.7,1.6;stroke-dashoffset:0;"/>
    </g>
    <g id="line2d_71">
     <g>
      <use style="fill:#ff0000;stroke:#ff0000;stroke-linejoin:miter;" x="295.071375" xlink:href="#m48c11aea8f" y="77.368704"/>
     </g>
    </g>
    <g id="text_21">
     <!-- The EV of BRN -->
     <defs>
      <path d="M 71 66.21875 
L 71 64.40625 
Q 67.484375 63.765625 65.671875 62.15625 
Q 63.09375 59.765625 61.078125 54.828125 
L 37.984375 -1.515625 
L 36.1875 -1.515625 
L 11.375 55.5625 
Q 9.46875 59.96875 8.6875 60.9375 
Q 7.46875 62.453125 5.6875 63.296875 
Q 3.90625 64.15625 0.875 64.40625 
L 0.875 66.21875 
L 27.9375 66.21875 
L 27.9375 64.40625 
Q 23.34375 63.96875 21.96875 62.84375 
Q 20.609375 61.71875 20.609375 59.96875 
Q 20.609375 57.515625 22.859375 52.34375 
L 39.703125 13.53125 
L 55.328125 51.859375 
Q 57.625 57.515625 57.625 59.71875 
Q 57.625 61.140625 56.203125 62.421875 
Q 54.78125 63.71875 51.421875 64.265625 
Q 51.171875 64.3125 50.59375 64.40625 
L 50.59375 66.21875 
z
" id="TimesNewRomanPSMT-56"/>
     </defs>
     <g transform="translate(316.671375 81.568704)scale(0.12 -0.12)">
      <use xlink:href="#TimesNewRomanPSMT-54"/>
      <use x="61.083984" xlink:href="#TimesNewRomanPSMT-68"/>
      <use x="111.083984" xlink:href="#TimesNewRomanPSMT-65"/>
      <use x="155.46875" xlink:href="#TimesNewRomanPSMT-20"/>
      <use x="180.46875" xlink:href="#TimesNewRomanPSMT-45"/>
      <use x="241.552734" xlink:href="#TimesNewRomanPSMT-56"/>
      <use x="313.753906" xlink:href="#TimesNewRomanPSMT-20"/>
      <use x="338.753906" xlink:href="#TimesNewRomanPSMT-6f"/>
      <use x="388.753906" xlink:href="#TimesNewRomanPSMT-66"/>
      <use x="422.054688" xlink:href="#TimesNewRomanPSMT-20"/>
      <use x="447.054688" xlink:href="#TimesNewRomanPSMT-42"/>
      <use x="513.753906" xlink:href="#TimesNewRomanPSMT-52"/>
      <use x="580.453125" xlink:href="#TimesNewRomanPSMT-4e"/>
     </g>
    </g>
   </g>
  </g>
 </g>
 <defs>
  <clipPath id="p6ed60e9d5c">
   <rect height="264.4488" width="357.12" x="57.6" y="41.2128"/>
  </clipPath>
 </defs>
</svg>
